<?xml version="1.0" encoding="utf-8"?>
<!-- Generator: Adobe Illustrator 22.1.0, SVG Export Plug-In . SVG Version: 6.00 Build 0)  -->
<svg version="1.1" id="Logo" xmlns="http://www.w3.org/2000/svg" xmlns:xlink="http://www.w3.org/1999/xlink" x="0px" y="0px"
	 viewBox="0 0 1074 787.2" style="enable-background:new 0 0 1074 787.2;" xml:space="preserve">
<style type="text/css">
	.st0{fill:#1E1E1E;}
</style>
<path id="Pointy_banner_short" d="M915,752C547.6,895.3,326.2,545.6,0,689l0,0c309.7-157,732.1,134.5,1074,0.2L915,752z"/>
<g>
	<path d="M662.8,621.2c0.4-0.2,0.3-3.2-0.1-4.6c-0.3-1.3-2.6-0.6-3.9-0.6c-2.4,0.2-1.6,2.2-1.4,3.4c0.3,2.1-1.9,3-2,4.8
		C659.2,626.5,660.5,622.3,662.8,621.2z"/>
	<path d="M658.3,567.8c-1.1,0.1-2,1-1.9,2.1c-0.1,2.5,2.3,2.1,3.2,2.6c2,0.3,3.4-0.4,3.4-1.8c-0.1-2.2-2.4-2.4-3.9-2.9
		C658.8,567.9,658.6,567.8,658.3,567.8z"/>
	<path d="M648.6,419.7c1.5,2.1,6.3,1.5,6.9,0.3c1.8-3.9,5.3-6.5,6.7-10.4c0.8-2.1,4.2-4.4,5.3-3.1c3,3.7,5.2,1.3,7.8-0.5
		c4.4-3,8.2-6.8,12.9-9.5c7.4-4.2,15.9-6,22.2-12.4c5.8-5.9,7.7-13.1,9.7-20.5c-4,3.2-4.4,8.2-7.8,11.8c-3.9,4-9.2,6.2-12.8,10.3
		c-6.3,7.1-16.6,6.5-23.5,12.4c-1.1,1-2.6-1.5-3.8-1.1c-5.5,1.8-11.1,2-16.8,1.9c-0.9-0.1-1.6,0.6-1.7,1.5c0.4,4.5-2.7,7.4-4.4,11
		C648,414,646.9,417.4,648.6,419.7z"/>
	<path d="M651.9,542.1L651.9,542.1c3.2-0.3,5.4,4.5,7.6,2.7c1.9-1.6,2.5-5.7,1.4-9l-7.8,1.9c0.9,1.2,3.2-0.2,3.1,1.9
		C656.2,542.7,653.2,540.4,651.9,542.1z"/>
	<path d="M529.5,78.2c4.2-3.2,10.5-3.4,13.5-9.1C538.1,70.3,534.3,72.7,529.5,78.2z"/>
	<path d="M675.2,327c0.3,5.5,2.8,10.3,7.9,12.6c4.1,1.9,4,5.4,3.8,8.5c-0.1,1.9-1.2,3.8,1,4.8c2.2,1.1,4.6,2.4,7.2,0.5
		c4.2-3,6.6-7.4,8.4-11.9c1.9-4.4,2.2-9.4,0.7-14v0c0.1-1.6-5.1-7.5-6.5-7.3c-3.3,0.5-5.9-1.7-8.6-2.7c-2.7-1-6.5-3.1-6.4-6.4
		c0.1-4.3-2.6-2.9-4.2-2.6c-2.5,0.4-3.1,2.3-2.5,4.8c0.2,0.8,2.1,0.7,0.9,2C673.7,318.8,674.9,323.1,675.2,327z"/>
	<path d="M639.1,558.6c-4.1,4.6-5.6,10.8-10.3,14.9c-0.2,0.2-1,1.3,0.3,2.5v0c3.2-5,8.8-7.3,12.8-11.6c0.9-0.9,2.7-2,3.5,0
		c1.3,3.4,5.3,3.5,7,6.2c1.1,1.7,2.1,0.1,2.6-0.2c0.8-0.7-0.1-1.1-0.8-1.6c-3.6-2.7-6.8-6-9.3-9.7
		C643.4,556.8,641.6,555.8,639.1,558.6z"/>
	<path d="M634.1,604.3l8.4,5.3C640.5,602.4,640.4,602.3,634.1,604.3z"/>
	<path d="M426.1,640.1c-1.5-0.4,0.5-3.7-2.6-3c-1.2,0.5-3.1-0.1-3.1,2.4c0,2.1,1.4,3.9,2.8,4.1C424.7,643.8,425.5,641.6,426.1,640.1
		z"/>
	<path d="M419.6,647.7c-0.1-0.2-0.2-0.4-0.2-0.5c-1.3-5-4.5-9.5-4.8-15.2v0c-1.2,2.3-1.8,4.5-5,2.8c-1.8-0.9-1.5,1.1-1.4,1.9
		c0.6,3.1,1.4,6.2,1.2,9.4C412.7,646.5,416.1,647.1,419.6,647.7z"/>
	<path d="M428,649.2c1.2,0.2,2.4,0.4,3.6,0.6C430.2,648.3,429.1,648.5,428,649.2z"/>
	<path d="M636.7,636.2c1.2,1.9-0.5,5.2,2.9,5.6c0.8,0.1,2.8,0.4,2.9-1.7C642.8,635.6,638.2,638.3,636.7,636.2z"/>
	<path d="M624.8,651.2c-0.1,0.1-0.3,0.2-0.4,0.3c-0.5,0.6-0.4,1.6,0.2,2.1c0,0,0.1,0.1,0.1,0.1c0.6,0.5,1.5,0.5,2-0.1l2.3-2.2
		c0.7,1.4,1.5,2.8,2.4,4.1c0.8,1,1.8,2.1,3.3,1.5c1.4-0.6,0.7-2,0.8-3c0.2-2.7-1.1-5-2.1-7.3c-0.9-2.1-4-2.5-5.8-2.1
		C624.6,645.4,627.3,649.5,624.8,651.2z"/>
	<polygon points="366.7,308.6 366.7,308.6 366.7,308.6 	"/>
	<path d="M311.6,325.1c3.5-4.6,4.2-1.3,5,1c0.2,1.1,0.2,2.3-0.1,3.4c-0.3,2.3,0.2,2.9,2.5,1.7c5.1-2.6,9.5-5.3,11.5-11.3
		c1.5-4,4.9-6.9,9-8c2.5-0.5,5.4,4,6.6,7.5c0.2,0.2,0.5,0.3,0.7,0.4c1-0.7,0.1-3.1,1.1-2.7c4.9,2.1,9.6-0.6,14.4,0.2
		c0.5,0.1,2.2,0.8,1.5-0.2c-2.1-2.9-0.1-1.7,1.1-1.4c1.2,0.3,2.2,4.2,3.5,0.1c0.4,0.1,0.8,0.3,1.1,0.6c-0.2,2.5,1.7,3.7,3.4,4.9
		c0.2,0.2,1,1.5,0.3,1.5c-3.8-0.1-4.1,5.7-9.2,4.1c1.9,1.6,3.7,0.4,4.6,1.7c-0.9,2.2-2.6-0.5-3.3,0.8c-0.7,1.3-3.4,1-2.7,3.2
		c0.6,2,2.2,0.3,3.3,0.4c2.5,0.4,5.7,0.4,7,2.2c2.8,4,5,8.3,6.6,12.9c0.6,1.7,1.5,1.6,2.3,1.9c0.5,0.2,1.6,0.1,1,0.6
		c-1.6,1.4-0.3,6-4.7,4.4c-1-0.4-1,0.5-0.9,1.1c0.3,3.6-2.9,5.4-4.8,6.8c-2.8,2-1.6,3.3-0.8,5.1c0.4,0.9,2.3,1.6,0.5,2.6
		c-1.1,0.6-1.5-0.7-1.9-1.5c-0.3-0.7-0.6-1.6-1.7-1.3c-0.4,0.2-0.8,0.5-1,0.9c2.9,3.6-1.3,6.7-0.8,9.9c0.3,2.3,0.9,3.9-0.2,6.5
		c-1.4,3.5-2-2.3-2.1,0c-0.2,4.5-3.7,7.1-5.5,10.7c-0.6,1.2,1,3.1-0.9,3.8c-1.4,0.5-2.6,0.8-2.5,2.4c0.1,1.5,2,1.4,3.2,2.2
		c-1.8,0.8-4.5,1-4.1,2.3c2.2,6.6,0.2,13.7,2.5,20.3c0.1,0.6,0,1.3-0.1,1.9c-2.5-1.3-1.9,0.6-1.2,1.3c1.4,1.3,2.2,3.3,4.2,4.1
		c0.4,0.1,1,0.3,0.4,0.9c-4.3,4.7,0.8,9,2.2,11.9c2.3,4.8,0.6,8.7,0.7,13c0,0.9-1.8,2.2-0.6,3.4c1.4,1.5,1.4-2.8,3.5-0.8
		c-1.3,2.1-3.4,4.5-1.5,6.8c1.9,2.2,1,3.1-0.5,4.8c-1.7,2-0.1,7.5,0.3,6.9c2.6-3.6,2.1,0.1,3,0.9c1,1,4.7,0.4,1.5,3.3
		c2.2,0.2,2,3.7,5.1,3.3c3.5-0.4,1.2,2.8,1.7,4.3c-6.2-0.4,1.2,2.6-0.8,3.2c0.3,0.1,0.5,0.1,0.7,0c1.6-0.3,2.2-3.1,4.4-1.8
		c2-1.1,0.9-6.1,5.4-4.3c0.2-0.2,0.3-0.5,0.3-0.8c-1.4-2.5,0.1-3.2,1.8-4.8c1.7-1.9,1.9-4.8,0.4-6.9c-2.2-3.2-0.3-6.3,3.8-6.3
		c1.8,0.1,3.5,0.4,5.2,0.8c-2.1,5.4,2.5,1.9,3.7,2.4c2.1,0.9,4.3,1.2,5.3,3.7c0.3,0.9,0.9,1.6,1.6,2.3c3.3,2.8,4.2,6.4,3.8,10.4
		c-0.3,3.3,1.4,5.6,4.1,6.2c2.4,0.5,5.1-0.9,7,2.2c1.5,2.4,2.9,1.1,3.8-0.8c0.4-0.8,0.1-2.5,1.4-1.9c2.3,1,4.8,1.3,7.2,0.8
		c1.9-0.4,3.9,0.1,5.7-0.1c5.2-0.5,8.2-6.2,13.9-6.3c1.5,0,5.9-13.4,5.4-15c0-0.2-0.1-0.3-0.1-0.5c-0.3-1.1-0.3-2.3-0.2-3.4
		c-6.2-0.8-6.8-1.1-9.9-3.9c-0.4-0.1-0.9-0.1-1.3,0c-4,0.2-8.6-0.7-11.7,1c-4.5,2.5-7.4-1.5-11.2-1.2c-1.8,0.2-3.3-3.6-3-5.5
		c0.2-1.5,2.6-0.1,4,0.4c0.8,0.3,1.9,1.2,2.4-0.1c0.9-2.4,2.8-1.9,4.4-1.8c3.1,0.1,6.1-0.6,8.9-2c1.6-0.8,3.2-1.4,4.9-1.8
		c6.2-0.9,12.4-2.3,18.3-4.3c3.1-1.1,5.4-4.6,9.5-2.8c1.4,0.6,0.9-1,1.3-1.6c1.3-2,4.3-4.2,5.4-2.9c2.9,3.3,4.6,0.1,6.8-0.3
		c0.9-0.1,1.4-0.9,2.6-0.3c5.8,3.2,12,0,18.1,0.4c3.5,0.2,7.4,0.2,9.3,2.3s4.1,2.4,6.1,3.1c1.8,0.7,4.1,1.2,4.8-2.6
		c0.6-3.8-1.2-6.8-1.4-10.2c-0.4-7.9-3.4-14.1-10.1-18.6c-0.6-0.4-2.6-1.8-0.1-2.7c0.9-0.3,1.1-0.9,0.1-1c-4.6-0.6-2.3-4-2.3-6.1
		c0-1.4,0.8-3.1,0.6-4.7c-0.4-2.8,2.8-1.9,3.8-3.6c0.6-1,0.7,2,1.2,2.2c3.8,1,7.7,2.7,11.5,0v4.2c-0.1-3.8,3.7-4.8,5.5-6.9
		c1-1.2,4.8-0.2,7.4-0.2c-7.1,2.2-7.1,2.3-2.8,8c-1.1-2.8-1.5-5.5,0.9-5.4c5.1,0.4-0.2,4.7,2.6,7c-0.3-7.3,3.3-3.4,5.9-2.4
		c0.7,0.3,1.5,0.7,2.2,1c4.8,2.4,9.6,5.2,14.6,0.3c0.7-0.5,1.6-0.8,2.5-0.7c6.7,0.2,7.5-0.9,6.1-6.9c2,0.2,2,2.1,3,3.4
		c0.4-1.5,1.6-2.9-0.6-4c-0.9-0.5-1.6-1.3-1.9-2.3c0-3.2-1.1-5.1-3.1-4.1c-3,1.5-5.7-0.8-8.7,0.1c-1.5,0.5-4.1,1.8-5.2-1.3
		c-0.3-0.1-0.6-0.1-0.9,0c-2.6,1.6-3.5-0.5-4.8-2c-1.6-1.8-3.2-1-4.5,0.6c2.2,1.2,1,1.3-0.4,1.4c-0.8,0.1-1.7,1.3-1.9-0.7
		c-0.2-1.9-1.6-2-3.2-1.6c-3.3,1-3.3,1-4.2-1.4c-0.2-0.2-0.5-0.3-0.8-0.4c-2.2-1.4-3.9-3.5-7.1-1.3c-3.1,2.1-5.3,0.7-5.9-3.2
		c-1.7,0.7-0.1-3.7-2.8-1.7c-0.5,0.4-2.6,1.7-2.5,0.2c0.2-2.8-4.3-4.3-1.1-7.2c-2.3-0.3-2.4,3.6-5,1.6c-2.2-1.8-4.5-4.5-6.9-4.7
		c-6.3-0.6-9.5-6.8-15.5-7.7c0.4-1,0.3-1.5-0.9-1.3c-0.5,0.1-0.2,2-1.4,0.6c-2.8-3.3-6.2-5.3-10.7-4.2c-0.9,0.4-1.8,0.3-2.6-0.3
		c-0.6-0.4-0.4-3-2.1-1c-1.3,1.6,1,1.5,1.3,2.3c1.4,4.2,5,7.4,4.1,12.6c-0.3,1.7-1,4.5,0.6,6.5c2.1-0.1,1.3-2.9,3.4-2.8
		c-0.9,3.3,1.3,5.4,2.5,8c1.1,2.4,4.8,1.4,4.1,4.1c-0.4,1.8,0.1,1.5,1.5,2.1c1.9,0.8,2.3,3.6,3.6,5.4c1.3,1.8,2,4.9,2.8,7.5
		c0.7,1.9,1.1,3.8,1.4,5.8c3.4-0.3,3.2,0.8,1.2,2.8c-0.7,0.7,0.2,2,0.6,2c3.2,0.2,1.1,2.8,1.9,4.1c0.6,0.9-0.3,2.9,0.8,3.1
		c3,0.4,0.9,3.7,2.9,4.4c-1.2,2.4,1.6,6-2.1,7.4c-2.3,0.7-4.7,1.1-7.1,1.2c-11.7,1.3-23.6,1.2-35.3,0.9c-8.4-0.2-16.8,1-24.9,3.3
		c-6.9,2-13.1,3.2-19.9,0.3c-4.3-1.8-8.9,0.1-13.3,0.5c-2.3,0.2,1.1,3.7-1.6,2.7c-5.9-2-9.3,3-13.7,4.7c-2.6,1-4.2,1.3-6.6,0.4
		c-2.6-0.9-3.2-2.3-3.4-5c-0.2-2.3,1.2-5.4-1.8-7.1c-0.2-0.1-1.1-1.2-0.2-1.6c3.8-1.4,3.9-5.3,4.8-8.1c0.9-2.6,0.9-4.2,4.2-4.1
		c1.8,0,3.7-1.3,5.2,0.7c0.6-0.8,3,1.2,2.4-1.1c-0.6-2.6,0.9-2.3,2.3-2.4c0.8-0.1,2.2-0.5,1.7-1c-4.1-3.4,2.1-1.2,1.3-2.6
		c3.6-0.8,1.9-3.1,1.1-5.1c3.8,0.8,7.6,2.4,8.8-3.2c0.2-0.9,1.1-0.1,1.4,0.4c0.8,1.2,0.4,8-0.5,9.6c-1.3,2.3,0.8,7,3.5,8.3
		c0.4,0.3,0.7,0.6,1,1c-0.4,0.5-0.9,0.8-1.4,1.1c-1-0.7-2.2-0.7-3.3-0.1c2.5,0.8-0.5,4.4,2.3,4.3c4.7-0.2,9.4-0.8,13.4-3.7
		c0.3-0.2,2.2-1.1,1.6-0.1c-1.7,3.4,1.1,1.7,1.9,1.9c4.6,1.2,6.5-4,10.5-4.5c-1.2-0.5-2.7-0.4-2.8-2.2c1.5-0.4,2.7,1.7,4.1,0.3
		c0.3-0.5,0.4-1.2,0.2-1.8c-3.8-1.6-6.3-5.6-10.8-5.6c-1.1,0.1-2.1,0.4-3.2,0.7c-0.5-6.4,4.3-3.8,7.1-4.4c0-2-2.1-0.6-2.4-1.8
		c-0.6-2.4-0.7-2.5-2.2-0.9c-2.2,2.3-4,2.1-6.4,0.1c-2.2-2-4-4.1-4.2-7.3c4.9-1,9.9-2.2,14.9-2.8c6.2-0.8,12.4-0.8,18.6-1.6
		c2.3-0.3,4.5-1.9,6.4-3.3c1.2-0.9,2.6-2.6,2.5-3.9c-0.1-2-2.2-0.9-3.5-1c-0.6-0.2-1.2-0.4-1.8-0.7c-7.7-2.6-14.9-3.3-22.7,0.9
		c-4.1,2.2-8.3,5.3-14,5.2c-3.4,0,0.6-3.5-2.5-3c-1.7,0.3-3.1-3.9-6.2-2.3c-0.4-0.7-1.2-1.5-1-2.1c0.6-3.4-0.5-4-3.6-2.8
		c-0.4,0.2-0.8,0.2-1.2,0.2c-1.4-0.1-2.4-1.3-2.3-2.6c-0.1-1.8-4.7-3.2-7.3-4.8c-0.2,0.2-0.4,0.4-0.5,0.7c-0.5,4.2-3.4,8.4-0.4,12.8
		c1.1,1.7,1.1,2.7-1.2,3c-0.8,0.1-2.1-1.6-2.5,0.5c-3.1-0.9-6.8,1-9.1-3.8c-1.7-3.3-1.8-7.1-0.3-10.5c2-5.1,1.9-10.8,4.5-15.8
		c2.3-4.4,5-8.7,4-14.1c-0.1-0.8,0-1.6,0.3-2.4c2.3-6.6,6.1-12.5,7.8-19.6c1.8-7.6,7.9-13.7,8.2-22.4c0.1-3.8,5.1-7.4,1.6-12.1
		c0-0.6,0.3-1.2,0.8-1.6c1.7-1.8,1.3-3.2-0.7-4.4c-0.7-0.4-1.7-0.8-0.9-1.7c2.6-2.9,0.4-4.9-1-7.2c-0.8-1.4,0.7-2.9-0.1-4.5
		c-0.1-0.3,1.6,1.3,2.3-0.2c-6.3-5.2-6.8-7.6-1.7-10.2c-8.8-4.6-18.9-2-27.3-6.3c0.5-1,2.9-0.8,2.4-2.8c-0.2-1-1.9-0.8-2-0.7
		c-1.5,3.4-6.2,1.5-7.5,4.5c-0.8,1.9-1.7,0.5-2,0.3c-2.2-1.7-4.3-2.7-6.6-0.2c-0.1,0.1-0.1,0.1-0.2,0.1c-0.7,0.4-1.5,0.1-1.9-0.5
		c-0.5-0.7-0.3-1.7,0.5-2.2c0.6-0.4,2.1,0.3,1.5-1.7c-2.8,0.3-4.6,1.6-5.8,5.2c-0.2-5.6-2.3-6.3-6.8-6.4c-3.9-0.1-5.7,3.2-9.2,3.3
		c-1.4,0-4.3-1-4.5,1.8c-0.2,1.8,0.4,3.8,3,4c0.7,0.6,0.9,1.6,0.5,2.4c-3.3-2.7-4.3-2.5-5.9,1.8c-1.2,3.3-3.7,2.9-4.4,0.9
		c-0.8-2.3-1.4-1.3-2.2-0.7c-2.7,1.9-4.9,0.7-7.4-1.4c0.7,3.8-2.2,6.7-1,10.2c0.4,1.1-1.1,2.3-2,2.5c-1.6,0.3-2.4,0-1,1.9
		c3.2,4.5,2.2,6.9-3.3,7.5c2.3,1.4,4.2,2.8,0.8,4.5c-0.7,0.7-0.9,1.6-0.6,2.5c1.3,4.6,1.3,9.4,0,14C314,314.7,314.4,320,311.6,325.1
		z M359.8,300.2c0.7-1.6,5.3-1,8.1-0.6c1.9,0.3,4,6.6,2.9,8.3c-1,1.5-3.8,2.1-2.4,4.9c0.2,0.4-0.9,0.4-1.5,0.4
		c0.1-1.4-3.1-1.3-1.7-3.4c0.5-0.5,1-0.9,1.5-1.3c-2.1-0.2-3.7-0.4-5.4,1c-0.9,0.7-2.5,0.6-2.4,2.4c-0.8-0.5-1.7-0.2-2.2-1.6
		C355.2,306.1,358.4,303.2,359.8,300.2z"/>
	<path d="M374.9,496c-3.5,0.7-2.5,5.8-6.2,6.4c1,1,0.6,1.7-0.6,1.9c-1.8,0.4-0.8-1.2-1.2-1.9c-1.2-1.7-1.7-3.3-4.7-3.8
		c-3.2-0.5-7.9-1-8.4-6.6c-1.6,1.6-3.9,3.4-3.7,3.9c2.1,4.4-2.3,2.3-3.8,4.2c6.4-1.1,4.1,5.6,8.3,7.3l-4,0.9
		c1.9,0.7,4.1,2.4,2.8,3.1c-3.3,1.7,1.2,2.6-0.1,3.7c1.1,1.2,1.3,0,2.1-0.5c1-0.7,1.7,0.2,1,1.3s-1.9,2.2-0.8,3.4
		c1.5,1.6,2.4-1.2,3.4-1c1.1,0.3,1.7-1.3,2.8,0c-1.6,1.2-2.6,2.4,0.3,3.5c2.6,1,3.9,4,6.2,5.4c2.5,1.6,0.7,2.4-0.3,2.8
		c-1.8,0.7-2.7,1.5-1,2.9c1.3,1,1.8,1.4,0,2.3c-1,0.5-3.4,0.3-2,2.7c0.2,0.3,0.5,0.5,0.7,0.7c4.5,7.1,13,7.6,19.5,11.6
		c0.9,0.5,1.8-0.4,2.3-1.4c-3-0.6-2.5-3.5-3.7-5.2c-0.8-1.2-1,1.3-2,1.3c0.2-2-3-1.5-2.5-2.8c0.5-1.5-0.6-1.8-0.9-2.6
		c-0.9-3.2-4.5-5.7-2.9-9.3c0.4-1,0.8-2,1.3-3c-1.3-0.7-2.5,0.3-3.8,0.3c-2.7-0.1-4.2-2-5.7-3.9c0,0,0,0,0-0.1
		c-0.2-0.5,0.1-1.1,0.6-1.3c4.2-2.3,5-6.4,2.1-10.2c-1.9-3-5.8-3.3-7.9-2.5c-2.4,0.9-2.2-0.8-3.1-1.3c-0.3-0.2-0.8-0.7-0.2-1.1
		c0.3-0.3,0.8-0.4,1.2-0.4c3.9,2.7,8.9,1.4,13,3.4c5.7-1.9,5.6-1.9,6.1-7.4c0.2-0.5,0.5-0.9,0.9-1.1c1.1-1,0.5-1.8-0.4-2.2
		c-5-2.2-0.8-3.5,0.5-5.1c-2.1-1.2-2.8,1.5-4.4,1.8C375.4,496,375.2,496,374.9,496z M368,517.9L368,517.9c-4.3,1.5-4.2-4.2-8.3-3.7
		C363.5,512.6,364.3,513,368,517.9z"/>
	<path d="M398.8,639.8c-0.2-0.8,0-1.6,0.5-2.2c3.1-2.2,2.5-4.5,0.3-6.9c-1-1.1-1.4-2.7-1-4.1c1.9-6.1-0.1-12.2,0-18.3
		c0-9.5,0-18.9,0-28.3c-7.6,0.4-14.4,2.2-21.8,2.1c-9.3-0.1-18.6,3.8-26.5,9.4c-1,0.7-2.1,1.3-3.2,1.9c-4.9,2.5-10.1,4.6-14.7,7.7
		c-8.9,6-16.8,13.2-26.3,18.5c-6,3.4-11.9,7.1-17.7,10.9c36.7,2.9,74.1,7.9,111.8,14C399.8,642.9,399.3,641.3,398.8,639.8z"/>
	<path d="M509.4,266.2c6.6-1.2,13.3-2.1,20-0.3c6.7,1.9,12.7,5.6,17.6,10.6c3.5,3.5,10.8,3.5,14,0.2c0.9-0.9,1.4-2.5,2.9-1.6
		c1.5,0.8,1.5-0.3,2-1.1c0.1-0.2,0.1-0.5,0.1-0.7c-0.6,0.2-1.2,0.3-1.8,0.2c-1.2-0.5-2.9,0.1-3.7-1.7l3.4-2.2
		c-2.1,0.8-4.4,0.1-5.7-1.7c-3.3-4.6-9.2-6.5-12-11.6c-0.2-0.3-0.4-0.5-0.7-0.6c-5,2.6-6.4-2-9-4.3c-0.6-0.5-2-1-2-0.8
		c1.5,5.6-2.6-0.7-2.6,1.3c-2.5-3.2-6.4-1.8-9.5-2.9c-0.7-0.2-2.5,0.9-2.1-0.8c0.7-2.7-1.5-2.4-2.7-2.7c-2.3-0.5-6.4,1.4-4.6-3.9
		c0.3-1-1.1-1.2-1.8-1c-6.6,2.4-13.1-0.8-20,0.5c-8.4,1.4-16.5,4.3-23.8,8.5c-2.5,1.5-4.7,3-7.8,2.8c0.7,1.6,2.7-0.1,3.2,1.6
		c-4.9-0.1-9.5,3-14.5,1.2c-0.6-0.2-1.7-0.4-1.8,0.9c-0.2,2.5-1.8,2.3-3.4,1.6c-1.1-0.4-1.9,0.5-1.6,0.9c1.1,2.1,1.1,3.8-1.4,4.8
		c1.3,1.7,1.7,5.4,1.9,5.5c4.1,2.3,5.3,7,8.5,10c1.5,1.4,1.8,3,1.9,5.4c0.1,2.5-0.6,7.3,4.7,7.3c0.4,0.1,0.8,0.3,1.1,0.5
		c-1.7,1.4-0.8,2.3,0.8,2.3c1.5,0,2.5,1.4,3.5,1.4c4.4,0,5.6,1.1,5.7,5.9c0,0.4,0.2,0.9,0.5,1.2c2.3,1.5,5,2.7,6.9,4.5
		c2.1,2,5.5,1,7.1,3.5c2.4,3.8,6.3,3.5,9.9,4.5c2.1,0.6,4.2-2.2,5.9,0.4c0.4-0.6,1.3-1.2,1.2-1.7c-0.3-1.4,1.3-3-0.5-4.3
		c-0.8-0.5-2-0.8-2.2-0.3c-2,4.1-2.8-0.2-3.5-0.7c-2.7-1.9,0.9-2.5,1-3.6c0.2-2.6,0.6-4.8,2.7-6.6c0.8-0.7,2.5-3-1-3
		c-0.4,0-1.5,0.4-1.2-0.7c0-0.1,0.1-0.3,0.1-0.4c0.3-0.7,1.1-1,1.8-0.6c4.5,2.5,2.8-0.9,3.2-2.9c0.4-2.5,0.8-5.4,2.4-7.3
		c2.1-2.5,0.6-6.9,3-7.9c2.7-1.1,6.3-0.2,9.4,0.3c6.5,1,13.3,1.2,17.9,7.2c0.9,1,2,1.6,3.3,1.7c6.2,1.3,12.4,1,19.6,0.6
		c-1.9-1-3-2.1-4.1-2.2c-5-0.5-9.3-3-13.9-4.8c-3.7-1.4-6.7-4-10.8-4.8c-5.6-1-11.1-3.1-16.6-4.7c-1-0.3-2-0.2-1.9-1.6
		C508.2,266.9,508.7,266.3,509.4,266.2z"/>
	<path d="M328.1,226.3c-1.7,1.9-1.6,3-0.6,4.9c3.5-1.3,2.8-6.6,7.4-6.6c0.8,0,0.7-1,0.6-1.6c-0.2-0.4-0.4-0.7-0.8-0.9
		C332.5,223.5,330,224.1,328.1,226.3z"/>
	<path d="M333.2,216.9c1.5-0.3,2.2-0.2,2.9,1.2c0.5,1,1.3,0.5,1.9-0.1c0.5-0.6,0.9-1.3,1.2-2c-0.3-0.3-0.6-0.5-0.9-0.8
		c-0.8-0.7-0.9,2.5-1.8,0.3c-0.4-0.9,0.5-1.5,1.4-1.4c1.6,0.2,2.7-0.1,2.9-2c3.5,0.4,2.4-1.9,2.3-4.2c0.9,5.7,5.9-3.3,7,2.8
		c-0.6-4.8,2.2-6.6,5.7-8.6c3.1-1.7,6.8-2.2,9.4-4.8c0.6-0.6,4.1-1.3,4.9-0.9c1.2,0.6,0.6-0.5,0.9-0.8c4.4-5.1,10.4-5.8,16.6-5.6
		c3.7,0.1,7.7-0.9,10.2-3c3.7-3.3,8.4-4.6,12-1.4c1-2.1,3.1-3.7,4.1-5.2c1.6-2.4,3.3-0.1,4.1-1.2c0.4-0.7-2.2-1.7-0.4-3.1
		c1.9-1.4,1.5,1.8,2.9,1.4c0.3-0.1,0.6-0.2,0.7-0.5c0.1-3.5,3-4.3,5.5-5.2c1.5-0.5,1.4-0.6,0.8-2.1c-0.8-2,1.1-3.7,2.6-5.2
		c2.2-2,1.3,1.4,2,1.2c2.9-0.7,4.5,4.6,8.2,1.5c0.5-0.4,5.7,1.3,7.4,3.1c2.8,3.2,6.1,4.1,9.8,5.2c0.4-3.5,0.4-3.7,3.3-3.8
		c1.9-0.1,2.8-4.3,5.3-1.2c1.8-2.9,4.9-4.7,8.3-4.9c1.1-0.1,0.3-0.8,0.4-1.3c0.9-4.4,1.4-4.7,6-4c0.9,0.1,5.4-1.8,6.2-2.6
		c0.2-0.3,0.4-0.5,0.7-0.6c4.7-0.2,5.6-4,7.1-7.4c1.4-3.4,2.7-3.4,4.9-0.5c0.4,0.5,0.9,0.6,1,0.4c1-2.8,3.9-0.9,5.8-2.2
		c-2.4-0.6-1.2-3.7-3.5-4.2c2.6,0.6,3.8-3.5,6.3-2c1.2,0.9,2.9,0.8,3.9-0.4c4.4-5.9,13.1-2.2,17.4-7.9c0.3-0.2,0.8-0.2,1.1,0.1
		c5.5,2.7,10.9,3.9,16.3-0.7c2.2-1.9,5.8-1.4,8.5-2.4c2-0.8,4.1-1.3,6.2-1.4c5.5-0.2,0.6,4.6,3.5,5.7c-1.3-4.7,1.5-6.8,5.3-7.8
		c1.1-0.2,2-1.2,2.1-2.3c0.5-3.2,0.7-6.3,4.8-7c0.1,0,0.3-2.5-0.2-2.7c-3.4-1.9-2.2-5.7-3.6-8.3c-2.1,0.8-4.4,0.8-6.5,0.1
		c0.6-1.3,1.1-2.4,1.6-3.6c0.7-1.9,0.4-2.8-2-2.1c-2.4,0.7-4.4,1.5-5.4,4c-0.2,0.6,0.5,1.7-0.9,1.6c-5.9-0.3-9.8,3.6-14,6.7
		c-1.2,0.9-2.9,1.8-4.4,1.3c-3-1.2-6.4-0.7-8.9,1.4c-1.5,1.1-3,2.4-5.3,1.6c-0.2-0.1-0.5-0.1-0.7-0.1c-1.1,0.1-1.9,1-1.8,2.1
		c0,0,0,0.1,0,0.1c0,1.1,0.9,2.1,2,2.1c3.4,0.1,7,1.1,9.8-2c1.2-1.4,2.3-1,3.2,0.2c0.3,0.4,1.2,1.4,0.7,1.3
		c-3.3-0.4-3.2,3.3-5.7,4.3c-5.8,2.2-11.7,4-17.8,5.3c-3.2,0.7-7.5,1.9-9.4,5c-1.9,2.9-4.6,5.1-7.9,6.2c-3,1.1-5.9-3.8-9.4-0.9
		c-0.3-5.3-4.9-2.1-7.3-3.5c-3-1.8-6.7-1.4-9.7,0.8c-2,1.4-3.7,3.7-5.9,0.3c-1.5,2.2-2-1.3-3.8-0.5c-2.9,1.3-11.3-3.2-10.7-5.9
		c0.7-3.5-1.7-1.3-2.3-2.1c-1.1-1.5-4.6-0.4-4-1.4c1.9-3.1-1.9-1.8-2-3.1c-2.5,0.6-3.2-1.5-4.5-2.8c-0.7,1.4-1.8,2.6-3.3,3.2
		c0.6-2.7-2.3-6.9-5.1-7.4c-3.9-0.6-4.4-5.3-7.9-6.4c1.1-1.5-0.4-1.7-1.1-1.8c-2.1-0.2-0.3,1.5-0.6,1.6c-1.5,0.3-1.1,3-3,2.4
		c-0.8-0.2-0.8-2.7-2.2-1c-0.7,1-0.6,2.3,0.3,3.2c1.8,1.6-0.1,2.8-0.5,3.9c-1.8,4.4-1,7,2.9,8.1c3.5-0.9,6.9-1.9,10.4-2.5
		c2.1-0.4,0.6-3.1,2.5-3.4c2.1,2.1-3.8,4.4,0.2,6.5c-4.1,0.2-7.6,3.8-12,2.3c-0.3,2-1.6,5.3-0.8,5.9c4.5,3.4-0.4,3.2-1.3,3.2
		c-5.7,0.4-9.1,4.8-13.6,7.3c-1.4,0.8,0.2,1.9-1.6,2.9c-5.1,2.9-9.9,0.4-14.7,0.9c-4.4,0.4-8.7,1.2-13,2.5c-2.7,0.8-4.5,1.4-4.9-1.7
		c-0.2-1.5-0.9-1.8-1.6-1.3c-3.4,2.2-6.8-0.2-10.2,0.1c-1.7,0.2-3.8,2-5,0.4c-4.5-5.6-11.4-1.5-16.4-4.4c-0.4,0.1-0.8,0.4-1.1,0.7
		c1.2,3.1-2.4,2.9-3.2,5c1.7-0.9,4.6-0.2,4.9-0.5c3.7-3.9,3.6,3.4,6.2,2c0.7,1.7,0,2.9-0.9,4.4c-1.9,3.3-1.1,7.3-1.5,11
		c-0.5,4.4,3.1,8.9,1.4,13.1c-1.2,3-0.6,4.5,1,6.7c1.4,2-1.2,1.8-2,2.4c-1.6,1.3-1.7,1.2,0,2.4c1.7,1.2,1.3,3.6-0.3,4.9
		c-1.5,1.1-2.6,2.9-3.9,4.4c1.4,0.5,3,0.2,3.4,1.9c-4.1-0.7-4.6-0.8-4.9,0.6c-0.9,3.7-6.2,4.1-6,8.8
		C332.3,216.4,331.7,217.2,333.2,216.9z M413.4,149.2c0.9-1.8,3.4-2.4,6-1.2c1.3,0.6,3.8,1.3,5.2-1c0.5-0.4,1-0.6,1.7-0.7
		c1.7-0.3,3.5-1.1,4.9,0.6c0.3,0.3,0,1.2-0.1,1.9c-2.2-0.9-1.6,3.9-4.9,2.1c-2-1.2-5.2-0.7-7.9-0.4c-2,0.2-2.9,1.5-1.3,3.7
		C414.6,152.9,412.2,151.4,413.4,149.2z"/>
	<path d="M515.3,120.2c3.5,2.5,3.5,2.5,9.3-0.9C520.9,117.9,518.2,118.9,515.3,120.2z"/>
	<path d="M601.9,506.7c-3.2-0.8-6.6-0.5-9.7,0.8c-2.1,0.9-4.5,1.8-4.8,4.2c-0.5,3.6-0.2,3.6-4.5,4.2c-1.2,0.3-2.4,0.8-3.4,1.5
		c0,0.4,0.1,0.9,0.3,1.3c1.6,1.8,2-0.7,3.1-0.8c0.6-0.2,1.3,0,1.7,0.5c-0.1,0.1-0.3,0.2-0.4,0.3c-2.8,2.6-8.5,2.2-8,8.1
		c0.1,1-1.1,0.4-1.9,0.4c-2-0.1-4.6-0.6-6,0.4c-3.7,2.5-8.2,4-10.8,7.5c-2.5-0.2,1.2-2.1-1-2.4c-1.8-0.2-1,0.9-1,1.8
		c0,1.6-1.6,1.4-2.2,1c-2.1-1.1-4.5,2.6-6.3-0.5c-0.3,0.7-2.6,0.6-1.5,1.4c2.9,2.1-0.3,4,0.6,6.3c-2.6-5.9-5.1-1.2-7.5-0.6
		c-0.9,0.2-0.2,2-1.8,1.6c-4.1-1-6.3-0.3-3.1,4.9c-2.3-0.9-3.3-3.3-5-2.2c-2.6,2-6.1,2.4-9.1,1c0.3,1.8-3.6-1.2-2,1.5
		c1.5,2.4,0,2.3-1.3,2.2c-3.3-0.3-6.3,1.5-9.9,1c-4.6-0.6-4.7,0.3-6.2-2.1c-0.5-0.8-0.7-0.1-1.1,0c-2.6,0.7-5.3,0.5-8,1.7
		c-4.2,1.9-4.3,1.5-6.2-1.3c-0.4-0.1-0.8-0.1-1.1,0c-0.2,1.3-0.3,2.6-0.5,3.9c-1.4-0.7,0.1-2.9-1.6-2.5c-1.3,0.3-2.7,0.5-4.1,0.6
		c1.7,4.8-4.5,1.2-4.5,4.2c-1.5-0.9-3.8-0.7-4-3.4c-3,4.1-3.2,3.3-7.3,4.7c-2.9,1-7.5-2.3-8.7,2.7c-0.4,2.1-2.1,3.6-4.1,4
		c-2.7,0.3-0.9-3.1-2.4-4.2c-0.4-0.1-0.7-0.2-1.1-0.3c-0.4,1.8-2.1,2.6-3.4,3.6c-3.8,2.9-6.5,2.5-9.1-1c-1.8-2.5-5.1-3.4-7-6.1
		c-0.5-0.8-0.6,0.6-0.8,1.1c-0.4,1.1-0.8,0.8-1,0c-1.2-4.2-3.8-4.1-6.9-2.1c-1.7,1.1-2.3-0.6-3.3-1.2c-2.6-1.5-4.9-2.3-4.1,1.9
		c-2.8,0.5-0.3-3.3-3-3c-1.4,1.1,1.3,2.3-0.3,3.7c-0.9-5-5.8-1.6-7.8-4.5c-0.6,1.9,0.9,3.4-0.8,4.9c-1.2,1.1-0.7,2.1,0.6,2
		c2.7-0.3,2.9,2.1,4.3,3.2c-2,1.2-0.8,4.7-3.4,5.2c-1.8,0.4-2.5,1.4-1.7,2.5c1.4,2.1,0.1,4.5,1.2,6.7c0.9-0.9,0.5-3,2.1-2.7
		c1.9,0.3,0.2,1.9,0.6,2.7c2.8,4.7,2.7,10.2,4.4,15.1c2.5,7.5,4.9,15,8,22.4c1,2.8,2.4,5.4,4.1,7.9c3.9,5.2,8.5,9.7,13.1,14.2
		c3,3,4.8,7.7,9.1,8.9c3.8,1,4.7,3.6,3.5,6c-0.1,0.2-0.2,0.4-0.3,0.7c2.2,0.4,4.5,0.8,6.7,1.2c0.5-0.2,1.2-0.1,1.9,0.3
		c26.5,4.9,53.2,10,80,15.3c0.7-1.1,1.2-2.3-0.6-3.3c-4.4-2.5-1.9-5.3,0.4-6.5c4.6-2.5,8.2-6.2,12.7-8.8c4-2.3,8.3-4.2,12-7.1
		c7.9-6,15.9-11.8,24.2-17.1c6.3-4,10.4-9.8,16.3-14.5c-1.9-0.4-3.3-0.8-4.1,0.1c-2.9,3.2-6.8,5.2-10.4,6.7c-4,1.7-5.3,5.6-8.8,7.8
		c-4,2.5-9.4,2.8-12.3,7.3c-0.6,0.9-3.9,5-5.7-0.3c-1.2,2.3-2.1,3.8-4.6,5.1c-2.6,1.4-5.9,2.3-7.8,4.4c-1.9,2.3-4.8,3.4-7.7,3.1
		c1.5-1.4,2.1-2.9,0.5-3.9c-2.2-1.4-1,1.6-1.5,1.6c-3,0.2-2.2,5.1-5.8,4.4c-0.2,0-0.4,0-0.6,0c-0.9-4.3-5.5-5.4-7.4-8.7
		c-2.4,1.9-4.6,0-6.9-0.3c-1.1-0.2-0.7,1.1-1,1.9c-1,3.1-4,4.5-6.4,5.4c-1.3,0.5-4.8,1.3-6.6-2.6c-1-2.2-1.2-4.8-2.6-6.7
		c-1.9-2.6-1.1-7.5,1.6-7.3c3.3,0.2,2.8-1.1,3.1-3.3c0.2-1.8-1.6-6.2,3.6-4.6c0.2,0.1,1.9-1.2,0.5-1.3c-2.2-0.3-1.1-2.5-2.4-2.9
		c2.1,0.6,3.6-2.3,5.6-1.3c5.9,3,1.1-4.9,4.8-4.6c1.1,0.1,1-2.1,0.6-3.4c0-0.1-1,0.2-1.6,0.2c-1.1,0-1.9-0.8-2.1-1.8
		c2.2-0.1,4.5,0.5,6.2-1.5c-4.3-3.3-4.3-3.3-3.6-6.7c-0.2,1.7,2.7,0,2.1,1.9c-0.3,0.5-0.7,0.9-1.1,1.2c0.6,0,1.5,0.3,1.9,0
		c1.2-0.8,2.1-2,2.5-3.5c0.5-2.5,1.5-4.9,4.8-5.1c-0.5-1.6-3.4-1.2-2.6-3.5c1.6-1.5,2.1,1.8,3.3,0.9v-5.2c0,0.1,0.1,0.2,0.2,0.3
		c0.9,1.6,3,2.2,4.6,1.2c2.1-1,2.9-4.2,2.2-5.3c-1.7-3-0.3-3.4,2-4.3c1.9-0.7,2.4-4.9,3.9-4.1c4.5,2.2,4.6-1.8,6.3-3.6
		c0.3,0,0.6-0.1,0.9-0.2l0,0c0.2,0.1,0.3,0.1,0.5,0c0.3-0.1,0.4-0.5,0.3-0.8l0,0c2.5,0.4,3.8-4.5,6.9-1.4c0,0,1.6-1.1,1.6-1.6
		c0-2.5,2.5-3.8,2.8-5.9c0.5-2.9,2.1-4,4.7-5c1.8-0.7,5.1-1.2,3.9-4.8c-0.1-0.4-0.3-1.7,0.6-1.3c0.8,0.3,1.6-0.9,2.4,0.5
		c2.7,5,2.2-2.6,4.8-1.4c0.9,0.5,0-2-0.6-2.6c-1.2-1.3-1.6-2.3-0.4-3.7c1.5-1.8,1.5,0.4,2.1,0.8c1.4,1,0.8-0.7,1.3-1
		c0.8-0.4,0.4-1.9,1.9-1.9c5.3-0.2,6.9-5.7,11.8-7l-3.9-2.1c3.1,0,5.9,0.8,4.3-4c-0.2-0.5,1.6-2,3.3-1.3c1.7,0.8,3.8,0.1,4.7-1.5
		c0.6-0.9-2.3,0.6-1.5-1.2c0.5-1.1,2-0.2,2.6-0.7c1.6-1.2,3.4-1.9,5.4-2.1c-0.7-2.4-0.1-4.7-1.2-6.8c-1.5-2.7-3.4-3.2-6-2.6
		C597.8,506.1,600.2,507.2,601.9,506.7z"/>
	<path d="M648.2,594.1L648.2,594.1c-3.2-0.9-5.4-1.3-7.4-2.1c-3.2-1.4-3.2,1.5-3.8,2.9c-0.9,2,1.7,4.9,1.8,4.8
		c4.3-3.5,4.9,1.2,6.6,3.5C647.2,600.1,643.2,596.3,648.2,594.1z"/>
	<path class="st0" d="M576.3,8.9c0.3-0.6,1.4-0.8,1.2-2.3c-0.3-2.6-4.7-1.5-4-4.6c-1.3,0.2-2.4,1.1-2.8,2.4
		c-1.3,4.5-5.6,7.2-6.6,12.5C569,15.2,573.8,14.1,576.3,8.9z"/>
	<path d="M580.4,111.6c0.1,0.2,0.3,0.3,0.5,0.4c0.7-1.1,1.3-3.8,2.2-2.8c2.4,2.6,6.4,4.4,6.5,8.6c0.1,2.6,2.6,1.5,3,1.3
		c1.6-0.6,4.6-0.7,4-2.9c-0.6-2.2-0.8-3.3,1.6-3.4c0.1,0,0.2,0,0.3,0c1.4-0.2,2.4-1.4,2.2-2.8c-1.8-4.7,3.7-3.6,4.1-3.6
		c3.9-0.6-1.3,1.1,0.3,1.7c0.9,0.3,1.8,0.1,2.4-0.6c0.5-0.7,0.3-1.9,0.5-2.8c0.2-0.8,1-0.7,1.6-0.6c0.4,0.1,0.9,0.1,0.6,0.9
		c-2.1,4.4-1.5,10-4.8,13.7c-2.2,2.5-0.2,4.4-0.5,6.5c-0.4,2.5,2.8,1.7,3.8,3.8c0.9,1.8,1.4,1.2,1.5,3.9c0.3,5.8-3.7,11.4-0.6,17.9
		c0.1-2.9,0.3-5.2,0.4-7.4c0.7,1.3,0.6,2.6,1,3.8c0.2,0.7,2.4-1.4,2.3,0.9c0,0.7-1.4,1.9,0.7,1.5c0.9-0.2,1.7,1.4,2.9-0.3
		s3.4-3.2,5,0.3c0.4,0.9,1.3,2.6,2.6,1.7c0.8-0.5,1.4-1.7,2-0.3c0.3,0.8,1.1,1.9,0.4,3c-1.8,2.9-1,6.5,1.7,7.8
		c1.3,0.6,2.7-1.1,4,0.2c-0.1,0.4-0.3,0.7-0.5,0.9c-1.8,0.7-1.9,2.7-2.1,3.9c-0.5,2.4,1.8-0.3,2.7,0.9c1.2,1.6,5.7,1.8,1.8,5.3
		c-1,0.8-0.6,3.7,0,3.8c2.1,0.3,2.1,0.3,2,1.2c-0.4,3.4,0.4,5.7,4.4,5.6c0.8,0,2.1,0.9,1.4,1.2c-3.5,1.4-1.1,1.6,0.3,2.3
		c1.2,0.6,3.4,1.6,2.6,2.9c-1.3,2.1,0.9,2.9,0.9,4.5c-0.1,3.3,3,6,3,9.5c0,0.9,0.3,0.9,0.8,1.2c2.5,1.6,7.6,8.8,8.6,11.9
		c0.1,0.3,0.3,0.6,0.5,0.7c5,0,0.8,2.2,0.7,3.2c-0.4,4-2.4-0.7-2.9,0.4c-0.7,1.3-1.7,3.5-1.1,4.4c1.3,2-0.8,5.4,1.9,6.1
		c3.7,0.9,4.6,3.3,5.7,6.1c-0.6,0.4-1.4,0.4-1.9-0.1c-1.2-0.8-1.9-0.4-1.4,0.7c0.8,1.8,2.5,1.3,4.1,1.2c-1,1.7-1.9,3.1-2.7,4.6
		c0,0,0,0,0,0c-1.4-0.5-1.1-2.7-2.9-2.8c-0.1,0-0.2,0-0.4,0c-0.4,0.1-0.7,0.5-0.7,0.9c0.1,1.5-0.7,3-2,3.9c0,0,0,0,0,0
		c-2-0.8-3.4-0.7-2.5,2c0.8,2.5,2.5,4.7,4.8,6c1.6,1,5.4,0.7,3.7,4.5c-0.1,0.3,0.1,0.5,0.8,0.6c1.4,0.2,5,4.2,5.5,5.2
		c0.7,1.5,0.2,4.2,4,2.9c1.9-0.6,4.3,3.3,7.3,4c1,0.2-2.1,2.2,0.1,2.6c2.4,0.4,0.5-2.4,1.6-3.1c0.9-0.3,1.8-0.6,2.7-0.6
		c-3-2.5-2.7-5.9-2.6-9.2c0.1-3.9,1.7-8.1-1.7-11.4c-1.9-1.9-0.4-2.4,1-2.9c3.9-1.6,7.5,0.3,11.1,1.2c3.4,0.8,8.2-1.1,8-2.3
		c-0.8-4.4,1.9-8.5,0.4-12.9c-1.5-4.2-1.1-4.8,2.7-8.2c0.5-0.4,0.9-0.8,0.4-2.1c-1.3-3-1.9-6.4-1.7-9.7c0.5-5.3,1.2-10.8,3.2-15.7
		c0.9-2.2,0.5-3.5,0.3-5.3c-0.3-3.2-3.8-4.5-3.3-9.3c0.6-5.4-3-12-5.9-17.7c-1-1.9-5.4-4-0.6-6.8c0.8-0.4-0.3-2.8-0.7-2.4
		c-2.1,2.2-3.7,1-4.6-0.8c-1.1-2,0.9-3.6,1.8-5.1c1.2-2,2.3-5,1.2-6c-3.7-3.4-3.9-8.9-8.1-12.1c-1-0.8-3.9,0.5-3.6-2.6
		c0.1-1.4-3.5-2.6-0.8-4.8c-5.7,1-1.4-3.4-2.6-5.1c-1.3-1.8-6.5-3-2.4-6.8c-3-0.7-2.1-5.3-5.7-5.6c-1.1-0.1-2.4-2-1.6-2.2
		c3.5-0.7,1.5-3.1,2.2-4.6c1-2.2,0.1-3.4-1.3-4c-2.3-1.1-4.4-5-6.7-3.1c-2.5,2.1-3.2,0.8-4.7-0.4c-1.8-1.4-2.8-4.8-6.2-1.8
		c-1,0.8-3.9-2.2-3.8-3c0.9-5.9-2.8-10.2-5-14.8c-3.2-6.8-10.2-9.8-16-13.9c-0.4,0-0.9,0.2-1.2,0.5c-2.8,3.3-2.9,3.3-6.1,0.1
		c-1.2-1.2-3.2-0.9-3.1,0.1c0.2,2.4-1.4,6.2,2.4,6.8c3,0.4,3.2,2.7,5,4.4c-4.8,0.9-6.2,2.3-2,5.8c1.3,1.1,2.6,4.1,1.3,5.7
		c-1.5,1.6-3.9,2.1-5.9,1.2c-0.4-0.1-0.9,0-1.3,0.1c1.9,0.8,2.6,4,5.4,2.6c-1.3,2,6.3,4.8-0.6,6.2c-0.8,0.2-1.5,0.7-2,1.3
		c-3,3.7-4.4,3.7-7.7,0.4c-2.6-2.7-5-5.7-7-9c-1.6-2.4-4.2-1.8-6.1-1.1c-1,0.4-2,3.5-1.5,4.2c1.8,2.3,0.8,4.2,0.1,6.2
		c1.7-3.7,5.7-1.4,8.4-3c0.8-0.5,1.2,0.9,1.1,2.3c-0.5,3.4-3.8,4.8-4.7,7.8c-2.4-1,0.7-3.1-0.9-4.1c-1.9-1.2-2,1.6-3.4,1.7
		c-0.1-1.7-0.2-3.3-0.3-4.9c-0.7,2.5-5.1,4.5-0.1,7.6c-0.7,0-1.5,0-2.2-0.1c-2.9-1.2-5.9-0.5-8.8-0.9c-3.6-0.5-3.1,5.9-7.1,3.4
		C576.1,107.7,581.6,108.5,580.4,111.6z M671.5,257.5c0.4-0.7,1.2-1.1,2-1.2c0,0,0,0,0,0c0.8-0.1,1.5,0.5,1.6,1.3
		c0.5,1.8-0.6,5,3.4,4c0.6,2.3-2.1,2-2.5,4l0,0c-0.3-5.2-2.8-2.3-4.5-1.7C670.2,261.7,674.2,259.6,671.5,257.5z"/>
	<path d="M683.3,270.6L683.3,270.6c0,0.1,0,0.1,0,0.1C683.4,270.7,683.4,270.6,683.3,270.6L683.3,270.6
		C683.3,270.6,683.3,270.6,683.3,270.6C683.3,270.6,683.3,270.6,683.3,270.6L683.3,270.6z"/>
	<path d="M608.2,44c1-1.9-1.3-1.9-2.2-2.3c-2.7-1.3-6.2-1.6-8.1-3.6c-3.3-3.5-5.7-1.8-9.5,0c6.1,2.7,11.2,5.2,17.1,5.5
		C606.3,43.6,607.2,46,608.2,44z"/>
	<path d="M691.8,281.8c-3.3-3.5,1.9-4.8,2.3-7.6c0.2-2.1,2.1,1,3.6,1c3.6,0,2.2,2.6,1.2,4c-1.5,2.1-3.3,4.1-6,4.9c0.1,1,2.1,1.7,0,3
		c-4.1,2.6-8.6,5-11.9,8.4c-1.7,1.8-2.8,4.5-5.2,5.8s1.2,3.9-1.3,5c1.5-0.6,3,1.5,4.6-0.1c0.9-1,3-0.2,3.3-2.2
		c1.2,0.3,1.8-4.2,3.4-0.4c0.2,0.5,1-0.1,1-0.9c0-2.1,0-2.5,1.8-2c2.3,0.6,3.7-1.9,5.9-1.3c0.1-2.7,1.8-5.1,4.4-6
		c-0.3-0.2-0.6-0.5-0.9-0.6c-1.7-0.5-1.3-1.8-0.7-2.7c0.6-1.1,1.5-1.1,2.9-0.7c3.3,0.9,9,7.1,9.7,10.5c1.4,7.6,3.1,15.2,4.9,22.7
		c0.4,1.8,0.7,4.5,3.1,4.3c2.4-0.2,3.3-3.7,3.4-4.9c0.6-9.2,4.7-18.1,2.8-27.5c-0.8-4.1,1.6-8.5-0.8-12.1
		c-5.5-8.3-8.6-11.4-18.5-7.4c-1.1,0.4-2.5,1.9-4.5-0.3c-1.7-2-0.7-2.9-0.4-4.5c0.7-3.4,0.4-6.8-2.7-9.1c-2-1.5-5.2-1.7-6.6-3.4
		c-1.1-1.4-2-1.5-3.6-2.3c0.2,2,1.8,3.4,0.8,4.7c-2.1,2.7,1.7,0.6,1.7,2.1c0,1.2-2.6,10.5-3.9,10.8c-1.7,0.4-1.3-1.4-2-2.1
		C683.1,277.1,686.6,281.7,691.8,281.8z"/>
	<path class="st0" d="M511.4,13.5c0.3-0.1,0.7-0.2,1-0.4C512,13.2,511.7,13.4,511.4,13.5z"/>
	<path d="M431,74.1c0.5,0.5,0.3,1.3-1.2,1.9c-2.2,0.9-3.5-2.1-5,0.2c-0.8-2,2.3-1.8,1.3-2.8c-1.4-1.5-3.6-1.3-5.6-1l-1.1,1.1
		c-3.3,3.6,1.3,3.2,2.6,4.2c-0.9,1.4-4.8,0.1-2.7,2.3c1.4,1.5,2.6,6.9,7.1,3.4c0.3-0.3,1.3-0.6,1.5,1.2c0.5,5.4,1.7,5.6,6.2,2.7
		c0.7-0.4,0.3-3.5,2.4-1.3c1.5,1.5,0.1,2.2-0.7,3.2c-0.4,0.5-0.8,1.1,0,1.7c4.6-1.5,6.9,2.7,10.4,4.1c1,0.4,2.7,0.9,2.5,2.8
		c-0.1,0.8-2.5,0.1-1.2,1c0.8,0.6,2.9,1.7,4.4,0.8c0.5-0.3,1.9-0.1,1.5-1.8c-1.1-4.8,2.9-5.3,5.8-7.1c-3.4,3.6-0.3,7.7,1,10.5
		c1.3,2.9,5.5,5.1,9.4,6.1c1.5,0.4,1.3-0.5,1.2-1.2c-0.2-3.5,1.4-3.5,4.5-3.3c2.7,0.2,1.6,2.5,2.7,2.9c4.4,1.9,9.1,1.4,13.8,1.6
		c1.6,0.1,2.3,2.8,4.1,1.5c2-1.4,4.4-0.9,6.8-1.8c-4.5-0.5-0.7-6.9-5.8-6.5c1.8-2.8,4.9-0.3,6.2-1.9c2-2.4,2,0.6,3,0.7
		c-1.3,3.5,2,4.1,3.7,5.8c0.6,0.5,1.5,0.8,1,1.8c0,0.1-0.1,0.2-0.2,0.3c-0.4,0.4-1,0.5-1.4,0.1c-1.3-0.8-2.5,0.1-2.3,1.2
		c0.2,0.8,0.9,2.7,3.1,1.3c3.5-2.1,8.4,1,11.8-2.5c3.3,2.6,5-1.4,7.3-1.8c4.6-0.7,5-6.7,9.9-6.8c0.8,0,1.8-0.7,2.9-0.2
		c3.9,1.7,6-3.6,9.8-2.6c1-4.9,5.2-3.5,8.3-4c6.4-1.1,7.8-4.5,3.8-10c-0.3-0.6-0.6-1.1-0.8-1.8c-1.6-3.5-7.1-4.7-9.5-2
		c-1.9,2.1-3.5,4.5-5.3,6.7c-1.7-0.4-1.1-2.3-1.7-3.2c-2.1,0.7-3,3.9-4.5,2.8c-1.5-1.1,0.4-3.3,1.1-4.9c0.3-0.7,1-1.3,0.1-2.1
		c-2.4-0.3-4.2,1.3-6.1,2.3c-7.1,3.8-13.8,8.5-22.6,7.6c2.9-2.7,7.3-3.6,9.4-8.4c1.5-3.4,6.4-5.4,9.8-8.1c-4,1-8,0.1-11.9,1.4
		c-5,1.7-9.6,4-14.5,5.9c-4.5,1.7-13.2-1.8-14.4-5.6c-1.4-1.1-3.1,4.4-4.4-0.4c-1.5-6-5.4-11.2-10.9-14.1c-2.8-1.5-2.4-2.6,0.1-3.9
		c5.2-2.7,5.5-5.4,0.6-8.3c-2.5-1.5,0.3-2.5-0.2-3.7c1.8,1.9,6.6-4.1,6.7,2.7c0,1.5,2,4.2,2.8,4.1c3.4-0.3,4,2.5,4.4,4.1
		c0.6,2.4,1.3,3.1,3.8,2.7c1.5-0.3,2.8,0.2,1.5,2.6c-2,4,1.8,0,1.9,1.2c0.2-0.8,0.2-1.6,0.3-2.4c-0.2-2.4,0.2-3,2.8-1.9
		c2.8,1.1,6.1,1.4,8.8-0.7c-1.4-1.8-3.4-0.8-5-0.8c-2.5,0-4-1-4.8-3.3c3-0.6,3-0.5,4.4,0.3c0.5,0.3-0.1,1.6,1.4,0.9
		c3.3-1.6,6.7-2.8,10.6-1.3c1,0.4,2.8-0.2,3.9-0.9c5.4-3.6,10.2-7.9,12.5-14.3c0.8-2.1,4.8-3.4,2.8-5.3c-1.2-1.1-4.3,2-6.3,3.6
		c-0.1,0.1-0.1,0.3-0.3,0.4c-0.4,0.4-0.9,1-1.6,0.5c-1-0.7-0.6-1.3,0.1-1.9c2.6-2.5,4.9-5.2,7.3-7.8c1-1.1,2.9-3.4,5-2.3
		c3.4,1.8,4.8-0.8,4.9-2.8c0.1-2.5,2.7-0.3,2.7-2.2c-1.7,0-3.3-0.1-5-0.3c-2.3-0.4-3.3-3.6-2.9-4c2.6-2.4,1.1-4.2,0.6-6.9
		c-1-5.9-5.9-2.8-8.6-4.1c-1.9-0.9,0.5,2.6,0,4c0,0.3-0.1,0.6-0.2,0.9c-2.1,2.8-2.7,6.7-0.2,9.1c3,2.8,1.1,4.5-0.1,6.8
		c-2.2-1.4-1.8-4.2-3.8-5.9c0.3,3.2,0.1,2.5-2.5,3.5c-2.5,0.9-4.1-2.8-5.7-0.6c-1.9,2.6-4.6,3.2-7.2,4.4c-1,0.5-1.8,1.4-1.9-0.1
		c-0.2-5.4-3.9-3.3-7.4-3.2c3.4-2,4.1-5.9,7.4-7.6c-3.2,0.8-3.5-4.9-6.8-3.3c1.2-3.6-4.9-2-3.8-4.7c2.3-5.7-3.3-3.3-4.8-5
		c-0.9-1-2-0.3-3.4,0.2c-3,1.1-3.7,5.4-6,5.1c-3.7-0.4-4.2,2.2-5.5,4c-2.3,2.8-4.3,5.9-6,9c-1.5,2.8-3.8,2.8-6.3,2.9
		c-0.6,0-0.8-1.4-1.9-0.6c-5.4,4.3-11.3,8.5-13.1,15.2c-0.7,2.4-3.4,9.3,4.3,9.7c1.1,0.1,0.2,1,0.1,1.5c-0.9,2.7-0.7,6.1-4.4,7.2
		c-0.5,0.1-1.5-0.3-1.2,0.8c0.1,0.6,1.1,1.5-0.3,1.6c-0.1,0-0.1,0-0.2,0c-0.9,0-1.6-0.7-1.6-1.5c-0.1-1.5-1.6-2.8-2.2-4.3
		c-0.6-1.5-1.4-2.5-3.2-2.4c-5.6,0.4-11.2-0.8-16.2-3.6c-1.7-1-3.1-0.2-3.5,1.6c0.6,0.6,2.4,0.7,0.7,2.2c-2.4,2-2.5,4.6-1.8,7.6
		C425.6,62.8,425.7,69.4,431,74.1z M480.1,76.3c2.7,0.5,2.9,2.9,3,4.4c0.1,2.2-1.9,0.5-2.9,0.7c-2.3,0.4-2.3,0.4-7.8-4.6
		C475.3,77,477.5,75.8,480.1,76.3z M466.7,64.3c1.7,1.5,3.8,2.8,5.1,4.4c1.5,1.7,2.9,2.2,5.5,1.8c-1.2,1.5-2.4,1.1-2.8,2.3
		c-0.9,2.3-2.4,2.9-4.6,1c-1.8-1.5-2.6-4.2-5.5-4.3c1.8-1.8,1.4-3.1-0.3-4.9C463.7,64,465.9,63.5,466.7,64.3z"/>
	<path d="M330.5,113.3c2,0.8,2.8,0.5,1.2,2.5c-0.4,0.5-2.1,1.7-0.3,2.7c2.6-2.2,2.7-2.2,4.9,0.4c2.7,3.2,7.3,3.3,10.5,6.2
		c1,0.9,5.1,0.5,7.4,2.4h0c1.2,1.2-0.1,3.5,1.9,4.5c1.3-1.3,2.6-4.2,4.5-2c0.8,1,1.5,1.7,2.1,1c1.1-1.3,0.8-3.2,0.3-4.6
		c-0.6-1.8-1.8,0-2.7,0c0,0-0.1,0.1-0.1,0.1c0,0,0.1-0.1,0.1-0.1c-0.5-0.7,0.9-2.3-1.2-2.3c-1.1,0-1.8-0.6-1-1.7
		c0.8-1.2,4-1.4,5.4-0.5c0.2,0.1,0.5,0.1,0.7,0c2.2-2.3,3.2,0.2,4.9,0.7c4,1.1,8.5,2.5,12.8,0.5c2.3-1.1,3.7-0.3,4.5,2.1
		c1.2-1.9,2.8-3.6,4.6-5c4.4,2.1,0.7,6.5,3.4,9.9c1.8,2.3,2.6,1.6,4.1,1.3c2.6-0.5,2.6-0.5,2.4-3.5c0-0.9,0.2-1.1,1-0.7
		c2.7,1.2,3.1-0.2,2.5-2.2c3-0.9-0.1,3.8,3.4,3c3.5-0.8-0.7-4.7,2.6-5.5c0.4-0.1-2.3-0.2-3-1.7c2.8,0.2,3.9-0.3,4.8-3.7
		c1.8-6.6,0.3-12.1-6.2-13.8c-1.1-0.2-2-0.8-2.7-1.7c-3.3-3.6-6.3-7.1-7.4-12.1c-0.1-0.5-1.7-1.6-0.8-2.7c1.1-1.2,2.6-0.5,3.3,0.7
		c3.7,5.8,10.4,7.1,15.6,10.6c2.2,1.5,4.1,3.5,6.9,4.3c2.3,0.6,3.2,0.2,3.3-1.8c0.1-1.1,2-3.4-1.7-3.4c-1.2,0-5.3-0.6-4.6-3.9
		c0.8-3.9,1.1-3.8-1.4-5.9c-6.3-5.3-11.4-11.8-17-18.4c1.5,0.4,2.8,0.4,3.8,0.9c2.2,1.3,1.2-2.5,3.3-1.8c2.4,0.8-0.4,4,1.7,3.7
		c3.9-0.5,7.1,2.7,11,1.7l1.1-1.1v0c-0.8-4.2-2.1-8.8-5.9-10.7c-3.1-1.6-3.1-3.4-3-5.8c2.9,0,5.9,0.3,8.7-0.3
		c1.9-0.4,1.5-2.3,0.2-3.7c-1.6-1.7-3.2-3.3,0.9-3.6c0.7-0.1,1.3-0.9,1.9-1.4c-2.9-1.2-6.1-1.4-9.1-2.1c-1.9-0.4-2.7,1.1-3.3,1.8
		c-1,1.1,0.8,1.3,1.5,1.7c1.4,0.8,2.1,1.5-0.3,1.8c1.4,2.1-4,3.4-0.7,5.7c-2.2,2.1-4.6,3.5-7,0.2c-1.1-1.5-3-1.6-4.3-1.9
		c-4.7-1-6.9-3.5-6.7-8.8c-0.7,2.1-0.6,3.1-3.6,2.2c-3-1-7.3-3.6-10.6-0.5c-4.8,4.3-5.6,11-8.9,16.3c-0.9,1.5,0.7,4.6,1,7
		c0.2,1.5,0.1,1.6-1,1.6c-2.1,0-3.8,0.8-6,2.5c2.4,0.1,4.3-1.4,5.6,1.4c-4.2,1.2-7.6,0.1-10.9-2.3c-0.5-0.4-0.4-1.9-1.5-1.1
		c-0.5,0.4-0.8,1-0.7,1.7c1.5,1.8,4.3,3.4-0.2,5.1c-0.4,0.2-0.1,2.1-0.2,3.3c-0.1,4.2,4.6,5.3,5.6,8.7c0.7,2.4,1.9,3.6,4.5,3
		c-0.1,1.6-2.6,0.3-2.1,2.2c3.9,0.1,3.7,0.2,6.8,5.1c1.7,2.7,0.1,2.5-1.5,2.5c-1.8-0.1-5,1-5.1,0c-0.3-3.6-0.9-5.2-5.2-6.5
		c-3.2-1-5.2-6-8.6-8.5c-3.3-2.4-2.4-8.5-8.6-9c-1.3-0.1-2.6-3.5-5.4-0.8c-0.8,0.7-3.7,0.7-4.2,0.1c-1.6-2.2-2.4-0.1-3.2,0.3
		c-2.4,1.3-3.3,3.1-2.3,6c0.6,1.8,1.2,4.5-0.8,6.2c-1.3,1.1-3.9-0.2-4.5,2.2c-0.7,3.3,3,0.1,3.4,2.2c0.2,1.1,1,2.1,1,3.1
		s-0.2,1.8,1.1,2c3.1,0.3,3.2,2.9,4,5.3c-3.3-4-7.2-2.4-11.3-1.5c3.2-4.3-1-3.7-2.6-5.1c-0.5,3.2,0.6,6.4,2.9,8.6
		C323,110.8,327,111.9,330.5,113.3z"/>
	<path d="M553.6,670.1c-1.1-1.5-2.6-2.6-4.5-1.8c-1.2,0.6-2.9,0.8-3.3,3h0c0.1,0,0.2,0.1,0.3,0.1c2.9,0.6,5.8,1.1,8.7,1.7
		C554.9,672.1,554.3,671,553.6,670.1z"/>
	<path d="M554.3,40.9c1.5,1.4-1.7,2.8,0,3.9c1.6,1,2.6-1.4,3.7-1.4c4.4-0.2,6.2-4.4,9.7-5.8c5.4-2.2,4.7-7.6,7.2-12.1
		c-3.5,1.3-3.7,5.2-6.8,5.6c-4.2,0.5-7.5,4.8-12.4,2.8c-0.7-0.3-2.4,0.7-3,2.1c-0.9,2.1-2,4.2-3.3,7.1
		C551.5,42,553.2,42.3,554.3,40.9z"/>
	<polygon points="588.4,38.1 588.4,38.1 588.4,38.1 	"/>
	<path d="M305.7,145.6c2.5-2.8,3.8-0.6,6.2,0.2l-5.2,4.4c8.3-0.9,14.4-3.7,20.7-6c-4.9-2.2-8.7-5.4-12.7-8.4
		c-2.3-1.7-4.3-1.3-6.2,0.5c-1.7,1.7-3.7,3.1-5.9,4.1c-1.8,0.8-2.9,1.6-1.4,3.8C302.4,146,304,147.5,305.7,145.6z"/>
	<path d="M589.2,678.9c0-1.9-0.4-2.1-4-2c-1.2,0-2.5,0.6-3.8,1.4c2.5,0.5,5,1,7.6,1.4C589.1,679.4,589.2,679.1,589.2,678.9
		L589.2,678.9z"/>
	<path d="M698,536.6c-0.8-1.4-2.9-4.1-5.7-4c-0.6,1.2,0.1,1.6,0.4,2.1c4.9,7.4,5.8,15.6,1.8,23.3c-2.3,4.5-4.1,9.2-5.4,14.1
		c-2.8,9.5-9.9,16.8-12.3,26.4c-0.4,1.7-2.5-0.4-4,1c3.7,2.2,2.2,4.9,0.8,7.6c-6.3,12.2-12.5,24.4-18.9,36.5
		c-2.5,4.8-3.5,10.5-7.3,14.5c-5.4,5.7-10.1,12.1-13.8,19c-1.8,3.4-4.1,6.6-6.4,9.6c84.9,15.3,169.7,27.1,252.2,25.2
		c-13.9-47.6-54-86.7-82.8-109.7c0-0.1,0-0.1,0-0.2c-2.4-1.9-4.6-4.1-7.2-5.6c-0.6-0.4-1.2-0.8-1.8-1.2c-0.1,0-0.1-0.1-0.2-0.1
		c-3.7-2.8-6.7-6.6-11.5-8.3c-6.7-4.6-10.8-7.1-10.8-7.1v0.1c-0.4-0.9-1-1.6-1.7-2.2c-10.2-6.4-20.5-12.5-30.4-19.2
		c-2.5-1.7-5.4-2.2-7.9-4c-5.5-4.1-11.4-7.7-17.2-11.3C704.5,541.3,700.4,540.7,698,536.6z"/>
	<path d="M595.7,669.1c2.9-3.9,5.4-8.2,8-12.4v0c-0.3-0.4-0.6-0.7-0.9-1c-1.1-0.8-1.7,0.2-2.5,0.8c-2.7,2.3-4.6,5.5-8,7
		c-2.1,0.9-4.4,2.5-2.8,4.5C590.4,668.9,595.5,669.4,595.7,669.1z"/>
	<path d="M556.5,648.5c-2.9-0.3-2.1,2.5-2.6,3.8c-1,2.8,2.2,2.2,3.4,2.7c1.5,0.6,1.3-1.7,2.5-2.8
		C558.4,651.2,558.8,648.7,556.5,648.5z"/>
	<path d="M622.8,621.1c-0.1-3.6-4.8-6.8-9.1-6.1c-2.1,0.3-5.9,5.9-4.5,7.5c3.3,3.9,1.1,9.1,3.5,13.3l3.9-2.6h0
		c-3.7-4.2-3.5-8.1,0-10.5c1.6-1.1,2.4-0.4,3,0.9c0.8,1.7-0.8,5.3,2.3,4.8c2-0.4,0.4-4,0.9-6.1C622.8,621.8,622.8,621.4,622.8,621.1
		z"/>
	<path d="M571.4,671.7c-1.9-4.1-5.5-1.1-8.1-2.4c-0.5-0.2-1.9,2.1-3.3,4.9c0.6,0.1,1.3,0.2,1.9,0.4c0-0.1,0.1-0.2,0.1-0.2
		C565.5,674.6,567.1,669,571.4,671.7z"/>
	<path d="M577.3,645c-3.1-3.1-5.5-0.5-8,1.1c-0.6,0.4-1.3,1.8-0.3,1.9c5.4,0.6,2.2,4.6,2.8,8.2v0c3-4.5,6.7-4.5,10.1-3.5
		c2.3,0.7,3.3-0.4,4.7-1.4c1-0.7,0.9-11.8,0.1-12.7c-0.3-0.5-1-0.7-1.6-0.5c-2.3,0.7-5.3,0.4-6.4,2.8c-1.2,2.6,2.8,2.1,3.3,4
		c0.1,0.4,0.1,0.7,0.1,1.1C580.4,646.8,578.5,646.4,577.3,645z"/>
	<path d="M330.3,445.9c0.6,3.9,5.3,6,5.6,9.2c0.5,5,4.1-0.1,4.8,2.3c1.3-1.5,2.9-2.7,1.6-5.2c-0.9-1.7-2.9-2.6-3-5.1
		c-0.1-4.5-3.6-8-5.2-12.1c-1.3-3.4-4.4-7.1-7.2-10.2c-2,1.2-1.2,3.2-1.2,4.9C325.5,435.5,329.5,440.2,330.3,445.9z"/>
	<path d="M323,343.4c-3.9,1.6,0.2,1.8,0.4,2.5c0.9,3.1,2.1-0.3,2.2-0.4c2.6-1.9,6-4.3,8.3-4.2c3.9,0.2,4.3-3.1,4-3.8
		c-1.4-2.4-1.1-6.6-6.9-6.4c-1.2,0.1-9.2,7.7-9.1,10.1C321.9,342.2,323.9,343.1,323,343.4z"/>
	<path d="M612.3,673.2c1,3.8,5.1,0.9,7.8,2.5c1.4,0.8,5.4-2.2,5.3-2.6c-1.5-3.8-4.5-5.9-9.1-5.3v0
		C612.9,667.9,612,672.2,612.3,673.2z"/>
	<path d="M344.3,477.6c0.9-3.7-0.9-7.2-0.6-10.9c0.1-1.1-2.2-1.6-4.3-2.2c0.5,2.8,1.1,4.9,0.2,7.3c-1.1,2.9,3.9,3.3,3.3,6.4
		C343.4,478.3,344,478.1,344.3,477.6z"/>
	<path d="M623.9,580.7c-3.9,0.2-3.2,5.5-6.5,5.6c-2.7,0.1-3.1,1.3-3.3,3.4c-0.1,1.3-0.2,2.8-1.5,3.4c-6.3,2.9-9,9.7-14.4,13.5
		c-0.9,0.6-1.2,1.6-0.9,2.6c0.2,0.3,0.6,0.6,0.9,0.8c0.4-0.2,0.7-0.4,1-0.5c5.6-3.6,11.2-7.4,14.5-13.1c3.1-5.4,8.4-8.4,11.9-13.2
		c0.6-0.8,3.1-0.5,1.6-2.6C625.9,579,624.9,580.7,623.9,580.7z"/>
</g>
</svg>
