<svg id="Logo" xmlns="http://www.w3.org/2000/svg" width="1074" height="954" viewBox="0 0 1074 954">
  <metadata><?xpacket begin="﻿" id="W5M0MpCehiHzreSzNTczkc9d"?>
<x:xmpmeta xmlns:x="adobe:ns:meta/" x:xmptk="Adobe XMP Core 5.6-c142 79.160924, 2017/07/13-01:06:39        ">
   <rdf:RDF xmlns:rdf="http://www.w3.org/1999/02/22-rdf-syntax-ns#">
      <rdf:Description rdf:about=""/>
   </rdf:RDF>
</x:xmpmeta>
                                                                                                    
                                                                                                    
                                                                                                    
                                                                                                    
                                                                                                    
                                                                                                    
                                                                                                    
                                                                                                    
                                                                                                    
                                                                                                    
                                                                                                    
                                                                                                    
                                                                                                    
                                                                                                    
                                                                                                    
                                                                                                    
                                                                                                    
                                                                                                    
                                                                                                    
                                                                                                    
                           
<?xpacket end="w"?></metadata>
<defs>
    <style>
      .cls-1 {
        fill: #1e1e1e;
        fill-rule: evenodd;
      }
    </style>
  </defs>
  <path id="Gabe" class="cls-1" d="M597.085,809.971c5-5.3,9.59-10.93,14.3-16.47a31.535,31.535,0,0,0,4.025-6.772c4.755-9.746,12.984-16.98,18.124-26.581a89.316,89.316,0,0,1,13.81-18.992c3.806-4.007,4.787-9.721,7.325-14.535,6.39-12.122,12.6-24.337,18.918-36.5,1.409-2.713,2.9-5.348-.761-7.586,1.462-1.365,3.551.777,3.985-.97,2.381-9.6,9.477-16.97,12.253-26.44A76.462,76.462,0,0,1,694.5,641c3.99-7.637,3.115-15.844-1.8-23.273-0.348-.526-0.984-0.913-0.408-2.1,2.752-.15,4.849,2.635,5.658,3.99,2.407,4.029,6.545,4.61,9.917,6.7,5.827,3.609,11.713,7.176,17.19,11.272,2.455,1.836,5.339,2.3,7.861,4,9.935,6.707,20.285,12.8,30.438,19.191a5.71,5.71,0,0,1,1.718,2.252c2.026,3.927,6.247,5.717,9.649,6.608,6.307,1.652,9.5,6.924,14.528,9.9,2.61,1.544,4.837,3.73,7.236,5.625q0,60.679.083,121.359c0.009,2.931-.594,3.525-3.538,3.52Q695.057,809.893,597.085,809.971Zm-388.924,0c1.216-10.953-.087-22.533,7.817-31.841,6.44-7.584,13.23-14.881,19.075-22.949,9.444-13.038,23.612-20.393,36.194-29.585,11.241-8.211,22.711-16.279,34.841-23.064,9.521-5.326,17.426-12.553,26.327-18.525,4.559-3.06,9.754-5.184,14.687-7.683a24.976,24.976,0,0,0,3.243-1.879c7.948-5.631,17.2-9.508,26.544-9.415,7.375,0.074,14.2-1.717,21.786-2.1,0,9.364.02,18.816-.008,28.268-0.017,6.085,1.94,12.154.049,18.268a4.413,4.413,0,0,0,.952,4.132c2.133,2.475,2.73,4.687-.34,6.926a2.513,2.513,0,0,0-.518,2.218c2.195,7.281,4.5,14.53,6.95,22.366,1.523-5.052,6.48-4.411,9.611-6.686,2.309-1.677,1.8,3,4.1,3.2,2.981,0.26,2.133,1.439,1.169,3.581-0.971,2.158-.454,4.98-0.617,8.035,2.742-3.7,5.618-5.573,9.44-1.688,0.978,0.994,2.738.594,4.346,0.121a4.166,4.166,0,0,0-2.63-2.219c-2.924-1.041-5.274-2.936-4.821-6.739,0.164-1.375.878-3.36-1.595-3.8,2.029-1.53-3.914-3.294.122-4.72,2.377-.84,4.246-4.979,7.433-0.56,2.768,3.838,4.61,8.1,6.937,12.131,1.735,3,.054,7.723-3.121,9.024-1.79.733-.413-1.83-1.711-1.728-0.9.072-1.88-.389-2.987,0.614,3.652,2.1,4.156,7.959,9.94,7.37,0.863-.088,1.622.963,1.7,2.081,0.145,1.931.25,3.456,1.273,0.176a0.87,0.87,0,0,1,1.6.612c-0.305,3.936,4.105,2.7,4.376,2.577,4.324-2.025,7.273,1.519,8.2,3.674,1.742,4.049-.488,8.5-2.41,12.4-0.611,1.24-2.135,1.687-3.22-.52-2.235-4.549-5.9-7.456-10.856-9.172-1.493-.518-1.806-3.5-1.747-5.644,0.016-.579,2.31-0.38.478-1.333-0.526-.275-1.444.194-2.182,0.322,0.581,2.037-2.164,2.811-1.858,4.662,0.864,5.233-4.362,6.814-6.334,10.348-0.36.645-2.337,0.718-3.223-1.433-1.607-3.9,1.337-8.3-1.687-11.892a2.458,2.458,0,0,1,.682-1.05c0.425-.438,1.859.389,1.475-1a1.294,1.294,0,0,0-1.971-.8c-3.125,2.326-3.225-1.046-4.194-2.292-0.913-1.174-1.545-2.967-2.7-.588-1.1,2.267-1.852,1.5-3.171.385-1.069-.9-2.258-1.585-3.908-0.82-1.989.923-1.038,2.527-1.141,3.82-0.227,2.826.974,5.394,2.291,7.737,2.392,4.254,2.894,9.68,7.309,12.674,4.388,2.975,1.518,8.068,3.846,11.729,2.455,3.863,4.2,8.173,6.253,12.288h-222.1Zm253.689,0c-3.019-4.07-1.091-8.314-.519-13.563,1.865,3.265,2.5,6.51,6.174,7.524-0.393-6.526,4.087-11.571,5.024-17.691-1.529-1.7-3.393,3.228-4.882-.265-1.052-2.466.8-4.371,1.742-6.02,0.622-1.088,2.591.824,3.924,1.777,1.713-2.964,3.347-6.231,5.4-9.211,1.725-2.5,2.181-8.713,7.631-3.1,0.918,0.945,3.888.967,4.746-1.052,1.31-3.08,3.216-3.159,6.061-1.3-1.14-5.554-6.423-5.009-9.236-7.653a28.386,28.386,0,0,0-7.709-4.5c-4.372-1.908-7.852-.684-8.432,3.889-0.622,4.917-5.805,5.161-8.068,8.351-0.446.629-1.413-.207-1.477-0.666-0.458-3.276-4.536-6.008-1.132-10.282-2.428,1.957-3.521.774-4.3-.953-0.961-2.122,1.4-2.108,2-2.105,2.57,0.011,3.617-3.205,6.531-2.732,0.663,0.108,2.421-2.546.074-4.092-4.011-2.642-8.226-4.936-11.6-8.54-2.073-2.214-4.617-3.008-4.913,1.673-0.051.812-.872,1.576-1.344,2.374-2.678-1.879-5.959-3-3.638-7.6,1.191-2.365.317-4.969-3.477-6-4.347-1.181-6.094-5.877-9.133-8.877-4.568-4.511-9.2-9-13.059-14.19a36.859,36.859,0,0,1-4.073-7.9c-3.115-7.316-5.486-14.891-7.979-22.364-1.638-4.906-1.6-10.386-4.376-15.083-0.436-.74,1.261-2.4-0.616-2.676-1.573-.235-1.169,1.886-2.119,2.748-1.055-2.224.275-4.584-1.169-6.687-0.8-1.168-.055-2.177,1.749-2.548,2.583-.531,1.441-3.98,3.431-5.2-1.324-1.173-1.574-3.509-4.266-3.243-1.343.132-1.836-.832-0.626-1.968,1.666-1.565.158-2.979,0.79-4.927,2.059,2.935,6.95-.472,7.828,4.546,1.589-1.329-1.146-2.506.294-3.654,2.716-.263.2,3.541,3,3.042-0.837-4.247,1.417-3.441,4.061-1.938,1.014,0.576,1.534,2.322,3.267,1.213,3.086-1.974,5.642-2.017,6.87,2.134,0.241,0.814.62,1.129,1.008,0.012,0.159-.457.265-1.853,0.8-1.1,1.859,2.651,5.136,3.624,6.965,6.077,2.581,3.464,5.322,3.945,9.093,1.014,1.347-1.046,2.962-1.832,3.41-3.631a3.6,3.6,0,0,1,1.133.254c1.5,1.1-.284,4.54,2.4,4.247a5.1,5.1,0,0,0,4.13-4c1.255-5.012,5.82-1.744,8.728-2.725,4.037-1.363,4.305-.577,7.268-4.682,0.192,2.671,2.519,2.431,3.991,3.353-0.018-2.987,6.17.637,4.462-4.15a19.946,19.946,0,0,0,4.082-.6c1.675-.379.151,1.87,1.553,2.542,0.168-1.388.325-2.68,0.479-3.945a2.648,2.648,0,0,1,1.131.018c1.865,2.745,2.039,3.154,6.191,1.274,2.679-1.213,5.386-1.04,8.021-1.742,0.359-.1.6-0.8,1.094,0,1.5,2.417,1.66,1.493,6.216,2.112,3.607,0.49,6.545-1.212,9.873-.962,1.363,0.1,2.823.173,1.339-2.232-1.654-2.68,2.234.328,1.961-1.472a8.849,8.849,0,0,0,9.122-.965c1.668-1.162,2.716,1.287,4.99,2.185-3.231-5.237-1.021-5.946,3.082-4.913,1.526,0.385.869-1.368,1.759-1.592,2.441-.613,4.9-5.361,7.5.569-0.843-2.361,2.3-4.273-.586-6.324-1.143-.811,1.169-0.72,1.5-1.449,1.848,3.038,4.211-.633,6.307.45,0.6,0.308,2.163.518,2.164-1.049,0-.873-0.829-2,0.979-1.758,2.225,0.292-1.475,2.213,1.038,2.4,2.634-3.448,7.12-4.926,10.84-7.474,1.426-.977,3.977-0.486,6-0.362,0.776,0.048,1.983.652,1.9-.352-0.491-5.917,5.239-5.538,8.008-8.117,0.12-.112.248-0.215,0.373-0.323a1.409,1.409,0,0,0-1.65-.491c-1.083.11-1.517,2.632-3.082,0.847a1.959,1.959,0,0,1-.33-1.267,11.6,11.6,0,0,1,3.435-1.478c4.215-.6,3.959-0.559,4.453-4.175,0.331-2.417,2.688-3.389,4.823-4.248a15.407,15.407,0,0,1,9.692-.79c-1.788.475-4.15-.6-4.8,2.39,2.642-.526,4.566-0.063,6.028,2.633,1.1,2.033.549,4.4,1.244,6.763a10.2,10.2,0,0,0-5.4,2.085c-0.672.533-2.133-.394-2.627,0.691-0.82,1.8,2.028.358,1.453,1.227a3.754,3.754,0,0,1-4.746,1.545c-1.709-.72-3.447.756-3.268,1.262,1.689,4.78-1.139,4.047-4.251,4.011l3.9,2.069c-4.864,1.285-6.555,6.825-11.812,7-1.416.047-1.074,1.528-1.853,1.932-0.542.281,0.05,2.032-1.336,1.029-0.641-.463-0.58-2.565-2.1-0.814-1.215,1.4-.821,2.468.388,3.736,0.611,0.642,1.5,3.088.569,2.633-2.559-1.246-2.057,6.436-4.8,1.4-0.747-1.374-1.574-.2-2.357-0.524-0.93-.392-0.721.926-0.592,1.32,1.18,3.618-2.135,4.131-3.941,4.845-2.581,1.019-4.158,2.061-4.678,5-0.361,2.044-2.871,3.339-2.844,5.869,0.006,0.556-1.608,1.63-1.624,1.614-3.082-3.061-4.449,1.867-6.9,1.448l-0.808.795a4.122,4.122,0,0,1-.932.247l0.017-.017c-1.744,1.722-1.828,5.748-6.329,3.57-1.479-.716-1.978,3.394-3.907,4.137-2.269.874-3.648,1.309-1.965,4.292,0.654,1.16-.149,4.3-2.247,5.341a3.37,3.37,0,0,1-4.764-1.566v5.241c-1.2.81-1.75-2.475-3.315-.948-0.74,2.273,2.133,1.96,2.636,3.514-3.248.21-4.325,2.569-4.79,5.07a5.827,5.827,0,0,1-2.454,3.467c-0.368.314-1.24,0.042-1.882,0.038a4.107,4.107,0,0,0,1.1-1.241c0.56-1.925-2.3-.226-2.091-1.882-0.717,3.417-.717,3.417,3.594,6.749-1.679,2.022-4.045,1.39-6.223,1.522a2.091,2.091,0,0,0,2.077,1.826c0.538,0.062,1.565-.232,1.588-0.15,0.354,1.275.493,3.506-.642,3.42-3.656-.279,1.192,7.6-4.752,4.586-1.994-1.01-3.439,1.945-5.57,1.32,1.322,0.486.179,2.692,2.391,2.949,1.4,0.162-.237,1.391-0.484,1.315-5.2-1.589-3.4,2.838-3.609,4.646-0.259,2.231.243,3.536-3.064,3.3-2.692-.189-3.554,4.694-1.641,7.294,1.434,1.95,1.66,4.546,2.63,6.732,1.743,3.929,5.223,3.1,6.56,2.591,2.429-.919,5.489-2.245,6.44-5.391,0.218-.721-0.1-2.018.964-1.868,2.309,0.324,4.5,2.154,6.908.287,1.878,3.338,6.483,4.462,7.427,8.745a2.161,2.161,0,0,1,.586.007c3.553,0.668,2.76-4.294,5.795-4.448,0.526-.027-0.762-2.965,1.487-1.584,1.614,0.991.985,2.512-.474,3.872a8.8,8.8,0,0,0,7.74-3.094c1.91-2.06,5.238-3.028,7.841-4.385,2.436-1.27,3.336-2.763,4.573-5.087,1.792,5.293,5.124,1.216,5.726.3,2.961-4.506,8.374-4.764,12.349-7.286,3.489-2.213,4.747-6.165,8.769-7.842,3.666-1.528,7.561-3.5,10.422-6.71,0.793-.891,2.155-0.509,4.078-0.06-5.953,4.721-10,10.452-16.346,14.5-8.293,5.295-16.347,11.167-24.237,17.125-3.8,2.871-8.027,4.82-12.05,7.1-4.527,2.564-8.147,6.272-12.726,8.752-2.234,1.21-4.777,4-.361,6.5,2.529,1.435.571,3.215-.245,4.482-1.245,1.932-2.238.618-3.374-.563-2.538-2.636-9.508-3.14-12.557-1.123a10.57,10.57,0,0,1-2.483,1.476c-8.386,2.6-11.81,8.614-12.028,16.962-0.033,1.3.183,1.78,1.765,1.17,2.518-.97,3.371-0.428,3.031,2.266a2.836,2.836,0,0,0,.856,2.138A105.536,105.536,0,0,1,528.7,801.22c1.667,2.827,4.141,4.268,6.949.692,2.144-2.733,5.416-1.97,8.318-2.023,0.663-.012,2.2.326,1.5,1.8-0.451.943-1.186,1.538-2.189,0.434-1.248-1.372-1.988-1.135-2.768.594-0.423.939-1.646,2.182-2.482,2.163-4.258-.1-3.651,2.462-3.131,5.1H520.09c-1.144-2.254-2.737-3.423-5.47-2.753-6.948,1.7-5.853,2.561-9.279-5,1.092-.423,1.794.518,2.7,0.751,0.768,0.2,1.719.295,2.049-.694a1.983,1.983,0,0,0-.528-2.241c-1.921-1.614-5.708-.559-5.774-0.25-1.043,4.9-3.5,2.635-6.014,1.582-1.195-.5-2.729-0.831-3.572,1.217s0.569,2.1,1.682,2.622c4.256,2.012.532,3.258-.47,4.765h-7.9c-1.095-1.562-1.055-3.3-.915-5.1,0.243-3.134-.221-6.522-2.971-8.071-4.23-2.382-5.2-5.7-3.89-11.116-4.346,6.041-3.967,18.744-.121,24.291H461.85Zm30.024-14.13c-3.05-1.429-1.344-3.879-1.358-5.908,0-.44-0.08-1.63.895-0.608,2.912,3.054,10.221-1.126,10.483,6.314a1.562,1.562,0,0,0,1.158.492c2.684-.161,5.7-4.564,5.2-7.479-0.694-4.075-3.381-6.034-6.641-8.542-4.98-3.83-7.876-4.951-12.508-.749-0.8.73-1.188,1.449-2.694,0.3-1.848-1.407-2.62,1.245-3.524,2.322-0.7.837-.569,1.977,1.107,2.5,2.287,0.716,3.95,3.427,3.558,4.948C486.237,794.538,486.463,795.468,491.874,795.841ZM374.94,578.938c2.01-.652-5.364-3.626.811-3.248-0.445-1.531,1.885-4.684-1.656-4.3-3.153.344-2.888-3.136-5.134-3.306,3.25-2.851-.436-2.29-1.471-3.261-0.928-.872-0.38-4.544-3-0.943-0.485.667-2.068-4.845-.337-6.86,1.419-1.652,2.345-2.542.468-4.761-1.919-2.269.235-4.752,1.486-6.819-2.045-1.973-2.062,2.295-3.491.816-1.162-1.2.667-2.431,0.64-3.364-0.122-4.251,1.567-8.2-.727-12.993-1.381-2.884-6.506-7.2-2.185-11.9,0.572-.622-0.052-0.752-0.43-0.892-1.992-.74-2.778-2.736-4.176-4.084-0.75-.724-1.305-2.637,1.158-1.342a4.857,4.857,0,0,0,.141-1.864c-2.329-6.56-.291-13.649-2.524-20.283-0.418-1.244,2.354-1.473,4.105-2.286-1.194-.8-3.065-0.727-3.214-2.19-0.161-1.571,1.087-1.94,2.46-2.407,1.9-.648.318-2.6,0.9-3.777,1.779-3.592,5.3-6.232,5.5-10.724,0.108-2.327.72,3.474,2.135-.036,1.031-2.558.493-4.176,0.166-6.47-0.458-3.2,3.694-6.259.813-9.9a2.219,2.219,0,0,1,.967-0.948c1.01-.237,1.325.66,1.659,1.349,0.4,0.831.716,2.167,1.851,1.541,1.819-1-.063-1.7-0.467-2.571-0.836-1.8-1.973-3.123.8-5.113,1.909-1.372,5.142-3.191,4.8-6.771-0.057-.585-0.055-1.439.946-1.06,4.4,1.663,3.093-2.961,4.714-4.358,0.657-.565-0.534-0.435-0.985-0.63-0.821-.356-1.722-0.189-2.286-1.932a49.5,49.5,0,0,0-6.567-12.932c-1.265-1.805-4.459-1.841-6.964-2.239-1.1-.174-2.657,1.608-3.267-0.424-0.648-2.161,2.028-1.871,2.716-3.186,0.725-1.388,2.446,1.31,3.331-.845-0.845-1.284-2.667-.065-4.551-1.71,5.108,1.587,5.407-4.208,9.211-4.125,0.667,0.014-.058-1.285-0.3-1.466-1.715-1.26-3.52-2.369-3.365-4.916a2.956,2.956,0,0,0-1.087-.6c-1.361,4.062-2.364.146-3.541-.146-1.214-.3-3.2-1.56-1.139,1.367,0.767,1.087-.914.321-1.455,0.239-4.76-.719-9.518,1.964-14.375-0.168-1.048-.46-0.123,1.975-1.122,2.674a1.579,1.579,0,0,1-.724-0.41c-1.186-3.52-4.042-7.99-6.566-7.47a13.111,13.111,0,0,0-9,7.985c-2.01,6-6.474,8.725-11.548,11.3-2.335,1.183-2.781.578-2.486-1.7a7.993,7.993,0,0,0,.057-3.4c-0.773-2.274-1.5-5.646-5-1.022,2.8-5.131,2.354-10.421,3.739-15.362a25.854,25.854,0,0,0-.011-14.011,2.574,2.574,0,0,1,.641-2.527c3.406-1.7,1.56-3.085-.774-4.476,5.508-.557,6.466-2.99,3.295-7.452-1.35-1.9-.574-1.668,1.027-1.935,0.891-.149,2.357-1.355,2-2.479-1.114-3.524,1.728-6.4,1.038-10.225,2.484,2.073,4.721,3.228,7.409,1.374,0.864-.6,1.442-1.59,2.245.7,0.7,2.013,3.165,2.358,4.414-.9,1.662-4.326,2.648-4.458,5.933-1.785a1.974,1.974,0,0,0-.531-2.395c-2.668-.128-3.211-2.214-3.048-3.97,0.257-2.754,3.1-1.772,4.521-1.8,3.448-.072,5.241-3.345,9.176-3.285,4.508,0.069,6.579.821,6.82,6.4,1.233-3.652,3.027-4.944,5.8-5.243,0.563,2.008-.988,1.354-1.55,1.724a1.583,1.583,0,0,0-.455,2.155,1.414,1.414,0,0,0,2.133.4c2.353-2.531,4.406-1.52,6.619.162,0.3,0.225,1.178,1.631,2.017-.265,1.324-2.991,6.078-1.1,7.532-4.51,0.068-.161,1.754-0.381,2,0.662,0.452,1.95-1.9,1.811-2.446,2.771,8.472,4.3,18.565,1.684,27.323,6.326-5.1,2.552-4.581,5,1.675,10.193-0.648,1.449-2.4-.111-2.256.192,0.738,1.565-.788,3.1.056,4.458,1.412,2.279,3.589,4.32.986,7.184-0.8.884,0.135,1.22,0.878,1.663,1.916,1.145,2.318,2.614.652,4.391a2.5,2.5,0,0,0-.781,1.623c3.556,4.729-1.436,8.255-1.581,12.093-0.327,8.686-6.41,14.789-8.234,22.385-1.695,7.061-5.488,12.966-7.774,19.6a5.048,5.048,0,0,0-.321,2.384c0.936,5.363-1.758,9.723-4.041,14.1-2.607,5-2.53,10.684-4.518,15.778a11.813,11.813,0,0,0,.263,10.452c2.252,4.788,5.966,2.854,9.079,3.757,0.41-2.1,1.683-.422,2.527-0.539,2.295-.316,2.337-1.373,1.209-3.034-2.947-4.339-.088-8.513.44-12.75a1.478,1.478,0,0,1,.53-0.7c2.6,1.548,7.194,2.974,7.337,4.752a2.464,2.464,0,0,0,3.487,2.411c3.055-1.159,4.191-.539,3.58,2.829-0.113.621,0.671,1.405,1.041,2.113,3.078-1.615,4.492,2.549,6.191,2.259,3.144-.536-0.877,2.938,2.5,2.975,5.659,0.062,9.836-2.96,13.983-5.2,7.772-4.2,15.015-3.5,22.678-.888a8.494,8.494,0,0,0,1.793.721c1.3,0.109,3.362-.936,3.467,1.024,0.068,1.266-1.327,2.98-2.533,3.858-1.929,1.4-4.155,2.943-6.416,3.251-6.157.838-12.427,0.833-18.6,1.6-5.057.629-10.034,1.887-14.931,2.844,0.254,3.2,1.993,5.274,4.226,7.251,2.33,2.064,4.191,2.277,6.362-.061,1.5-1.612,1.563-1.522,2.2.881,0.315,1.2,2.4-.124,2.422,1.849-2.815.553-7.609-1.991-7.119,4.393a13.781,13.781,0,0,1,3.169-.714c4.5,0.019,7.029,3.993,10.779,5.57a2.211,2.211,0,0,1-.175,1.764c-1.34,1.466-2.6-.647-4.059-0.268,0.073,1.748,1.544,1.676,2.764,2.159-4.039.5-5.913,5.684-10.544,4.454-0.836-.221-3.645,1.441-1.923-1.931,0.512-1-1.363-.137-1.646.068-4.028,2.913-8.792,3.489-13.444,3.706-2.838.133,0.191-3.508-2.336-4.293a3.072,3.072,0,0,1,3.263.133,5.374,5.374,0,0,0,1.4-1.132,4.4,4.4,0,0,0-1.033-.97c-2.759-1.241-4.815-5.968-3.542-8.25,0.871-1.563,1.292-8.421.514-9.6-0.3-.453-1.18-1.26-1.371-0.377-1.206,5.58-5.019,4.008-8.831,3.205,0.773,2.025,2.475,4.3-1.136,5.1,0.718,1.4-5.483-.854-1.346,2.557,0.565,0.466-.91.916-1.68,1-1.423.163-2.974-.2-2.326,2.416,0.561,2.261-1.785.243-2.427,1.073-1.537-2.012-3.387-.71-5.231-0.734-3.326-.043-3.351,1.511-4.233,4.139-0.918,2.734-1.045,6.67-4.826,8.064-0.87.321-.021,1.429,0.209,1.565,3.01,1.771,1.643,4.8,1.8,7.131,0.176,2.651.844,4.072,3.4,4.972,2.415,0.849,4.072.57,6.624-.437,4.417-1.744,7.83-6.735,13.711-4.7,2.652,0.92-.684-2.541,1.6-2.738,4.448-.382,9.016-2.33,13.31-0.494,6.848,2.93,12.977,1.734,19.924-.308a82.913,82.913,0,0,1,24.874-3.312c11.783,0.225,23.589.408,35.338-.932a30.245,30.245,0,0,0,7.129-1.22c3.725-1.395.967-5.046,2.127-7.419-2.032-.7.1-4.011-2.905-4.376-1.1-.133-0.194-2.15-0.774-3.076-0.793-1.265,1.349-3.851-1.9-4.063-0.433-.028-1.328-1.3-0.6-2.035,1.989-2.014,2.206-3.085-1.166-2.766a27.064,27.064,0,0,0-1.37-5.751c-0.752-2.571-1.467-5.765-2.768-7.519-1.331-1.794-1.7-4.638-3.582-5.407-1.447-.59-1.925-0.319-1.506-2.131,0.642-2.769-3.054-1.742-4.11-4.133-1.172-2.653-3.433-4.748-2.505-8.042-2.159-.073-1.375,2.7-3.434,2.811-1.574-1.969-.888-4.788-0.594-6.519,0.879-5.173-2.757-8.434-4.138-12.585-0.255-.768-2.618-0.678-1.27-2.3,1.645-1.974,1.488.614,2.064,1.05a2.508,2.508,0,0,0,2.585.3c4.47-1.108,7.871.957,10.668,4.216,1.228,1.431.844-.5,1.382-0.589,1.259-.2,1.356.307,0.935,1.265,5.934,0.914,9.141,7.077,15.483,7.7,2.44,0.238,4.7,2.969,6.907,4.734,2.6,2.085,2.729-1.853,4.991-1.556-3.208,2.92,1.336,4.431,1.124,7.181-0.115,1.488,1.948.153,2.452-.219,2.7-2,1.114,2.423,2.784,1.739,0.636,3.882,2.834,5.336,5.911,3.212,3.189-2.2,4.927-.085,7.115,1.266a2.12,2.12,0,0,1,.8.419c0.9,2.386.887,2.386,4.15,1.405,1.541-.464,2.96-0.324,3.153,1.569,0.2,1.936,1.122.745,1.891,0.666,1.39-.141,2.609-0.224.439-1.414,1.294-1.649,2.851-2.4,4.475-.621,1.346,1.478,2.213,3.6,4.8,2a1.167,1.167,0,0,1,.936.022c1.025,3.079,3.656,1.768,5.155,1.3,2.955-.926,5.679,1.348,8.7-0.141,1.979-.975,3.081.923,3.1,4.147a3.5,3.5,0,0,0,1.858,2.324c2.259,1.138,1.051,2.534.619,4.027-0.978-1.251-.994-3.2-2.977-3.355,1.4,6,.553,7.072-6.133,6.911a3.855,3.855,0,0,0-2.537.694c-5,4.909-9.757,2.165-14.554-.272a21.258,21.258,0,0,0-2.191-1.039c-2.648-.984-6.2-4.926-5.926,2.4-2.82-2.242,2.441-6.609-2.621-6.96-2.419-.168-2.039,2.549-0.938,5.351-4.347-5.68-4.294-5.778,2.8-7.992-2.561,0-6.379-1.021-7.4.228-1.743,2.125-5.588,3.089-5.452,6.906v-4.207c-3.838,2.7-7.735.979-11.55,0-0.524-.135-0.676-3.128-1.237-2.173-1.011,1.72-4.152.856-3.8,3.632,0.2,1.6-.668,3.268-0.64,4.68,0.041,2.037-2.279,5.513,2.3,6.085,1.008,0.126.768,0.652-.113,0.982-2.5.936-.506,2.288,0.1,2.7,6.649,4.494,9.657,10.76,10.055,18.643,0.171,3.389,1.974,6.457,1.359,10.21-0.612,3.731-2.933,3.245-4.757,2.557-2.033-.767-4.209-1.032-6.111-3.135s-5.777-2.056-9.255-2.285c-6.055-.4-12.244,2.774-18.076-0.427-1.192-.654-1.779.154-2.632,0.284-2.191.333-3.879,3.552-6.787,0.25-1.142-1.3-4.175.977-5.435,2.945-0.39.609,0.1,2.209-1.254,1.6-4.088-1.832-6.4,1.714-9.507,2.81a104.6,104.6,0,0,1-18.332,4.3,19.75,19.75,0,0,0-4.939,1.828,18.258,18.258,0,0,1-8.888,1.976c-1.687-.1-3.57-0.558-4.44,1.807-0.5,1.36-1.611.416-2.439,0.127-1.38-.484-3.745-1.926-3.956-0.414-0.266,1.912,1.143,5.665,2.987,5.51,3.837-.323,6.694,3.717,11.225,1.175,3.114-1.746,7.767-.774,11.732-1.01a2.289,2.289,0,0,1,1.294.018c3.165,2.871,3.77,3.132,9.949,3.927a9.648,9.648,0,0,0,.183,3.442,3.326,3.326,0,0,1,.1.475c0.524,1.561-3.9,14.915-5.415,14.956-5.716.156-8.75,5.817-13.937,6.316-1.768.17-3.776-.306-5.7,0.07a12.23,12.23,0,0,1-7.186-.846c-1.333-.546-1.036,1.158-1.41,1.945-0.882,1.853-2.322,3.2-3.8.8-1.856-3.025-4.512-1.672-6.955-2.157-2.762-.55-4.489-2.881-4.146-6.187,0.42-4.043-.551-7.651-3.815-10.431a5.755,5.755,0,0,1-1.616-2.254c-0.937-2.507-3.15-2.8-5.251-3.685-1.217-.512-5.759,3-3.7-2.429a31.287,31.287,0,0,0-5.217-.791c-4.1.045-6.029,3.161-3.79,6.323a5.425,5.425,0,0,1-.389,6.859c-1.713,1.6-3.224,2.339-1.817,4.8a1.562,1.562,0,0,1-.328.774c-4.434-1.8-3.341,3.174-5.353,4.311C377.606,575.72,377.055,579.508,374.94,578.938Zm-8.215-187.4a8.468,8.468,0,0,0-1.539,1.276c-1.423,2.046,1.706,1.932,1.653,3.355,0.571,0.012,1.737.078,1.513-.371-1.41-2.828,1.383-3.4,2.386-4.946,1.116-1.727-.966-7.98-2.878-8.287-2.79-.448-7.41-1.018-8.1.562-1.337,3.08-4.594,5.948-3.094,10.135,0.5,1.39,1.442,1.142,2.218,1.6-0.035-1.726,1.528-1.63,2.429-2.367C362.99,391.124,364.587,391.363,366.725,391.542Zm316.661-37.994a10.354,10.354,0,0,0-2.826.674c-1.142.641,0.809,3.454-1.6,3.068-2.239-.358.9-2.385-0.105-2.6-3.02-.639-5.428-4.57-7.293-3.971-3.8,1.22-3.26-1.384-4.007-2.934-0.511-1.061-4.043-5.047-5.465-5.243-0.628-.086-0.891-0.328-0.766-0.616,1.674-3.858-2.094-3.576-3.728-4.54a10.46,10.46,0,0,1-4.771-6.014c-0.926-2.742.429-2.8,2.452-2.028,3.359,3.462,4.794,1.192,5.929-1.972,0.871-1.466,1.743-2.932,2.742-4.611-1.647.168-3.263,0.574-4.106-1.176-0.5-1.043.247-1.51,1.445-.665a1.446,1.446,0,0,0,1.921.144c-1.043-2.825-1.979-5.267-5.684-6.149-2.735-.651-0.619-4.087-1.936-6.085-0.57-.863.422-3.014,1.13-4.358,0.566-1.077,2.54,3.6,2.929-.425,0.1-1.024,4.262-3.23-.7-3.232a1.145,1.145,0,0,1-.529-0.716c-1.021-3.068-6.137-10.274-8.621-11.895-0.529-.346-0.837-0.253-0.831-1.2,0.024-3.5-3.081-6.243-3-9.549,0.04-1.671-2.214-2.458-.87-4.523,0.821-1.264-1.388-2.253-2.573-2.9-1.375-.749-3.812-0.864-0.277-2.3,0.676-.275-0.586-1.175-1.4-1.155-3.994.1-4.856-2.205-4.41-5.573,0.126-.947.1-0.95-2-1.248-0.6-.085-0.959-2.963,0-3.811,3.924-3.481-.579-3.636-1.783-5.253-0.9-1.2-3.158,1.475-2.7-.911,0.225-1.173.3-3.223,2.14-3.9a2.357,2.357,0,0,0,.524-0.948c-1.276-1.268-2.7.433-4.016-.2-2.661-1.275-3.514-4.846-1.69-7.773,0.715-1.148-.083-2.229-0.413-3.026-0.591-1.427-1.148-.173-1.956.31-1.38.824-2.219-.8-2.638-1.735-1.561-3.483-3.8-1.989-4.984-.286s-1.95.155-2.855,0.31c-2.093.355-.663-0.815-0.651-1.524,0.039-2.351-2.071-.225-2.32-0.919-0.411-1.148-.254-2.5-0.981-3.774-0.111,2.253-.223,4.507-0.368,7.446-3.113-6.512.964-12.094,0.634-17.885-0.154-2.7-.672-2.115-1.528-3.94-0.986-2.106-4.188-1.31-3.811-3.8,0.321-2.124-1.7-4.016.481-6.5,3.293-3.75,2.7-9.3,4.819-13.721,0.365-.761-0.2-0.807-0.57-0.862-0.621-.092-1.43-0.2-1.648.592-0.257.931-.018,2.125-0.526,2.815a2.137,2.137,0,0,1-2.443.619c-1.611-.618,3.648-2.338-0.3-1.732-0.4.062-5.868-1.081-4.056,3.634a2.548,2.548,0,0,1-2.521,2.864c-2.464.124-2.188,1.25-1.632,3.423s-2.45,2.279-4.007,2.88c-0.449.173-2.915,1.313-3.017-1.326-0.167-4.281-4.124-6.017-6.538-8.648-0.919-1-1.464,1.7-2.182,2.8a1.983,1.983,0,0,1-.511-0.414c1.164-3.133-4.3-3.883-2.6-7.187,4.008,2.477,3.537-3.951,7.118-3.435,2.869,0.413,5.933-.318,8.813.874a9.087,9.087,0,0,0,2.165.127c-5.043-3.1-.579-5.157.087-7.626,0.088,1.616.168,3.241,0.25,4.9,1.442-.145,1.563-2.9,3.441-1.739,1.566,0.963-1.487,3.09.866,4.089,0.9-3,4.247-4.405,4.7-7.781,0.189-1.4-.268-2.805-1.058-2.33-2.635,1.583-6.628-.687-8.36,3.029,0.632-2.067,1.642-3.955-.123-6.227-0.538-.694.511-3.824,1.48-4.206,1.906-.749,4.51-1.368,6.121,1.071a56.2,56.2,0,0,0,7.033,8.956c3.326,3.326,4.7,3.333,7.743-.369a3.8,3.8,0,0,1,1.956-1.274c6.928-1.46-.669-4.281.615-6.241-2.832,1.456-3.532-1.8-5.43-2.552a3.348,3.348,0,0,1,1.31-.06,5.217,5.217,0,0,0,5.945-1.2c1.245-1.642-.019-4.683-1.321-5.744-4.206-3.43-2.82-4.851,1.967-5.779-1.8-1.746-1.974-3.992-4.973-4.43-3.857-.562-2.186-4.384-2.426-6.756-0.1-.986,1.825-1.316,3.06-0.1,3.228,3.178,3.253,3.131,6.1-.12a1.531,1.531,0,0,1,1.182-.507c5.8,4.1,12.791,7.055,15.99,13.86,2.194,4.669,5.95,8.914,5.032,14.835-0.139.891,2.791,3.887,3.765,3.049,3.472-2.988,4.482.357,6.236,1.786,1.5,1.219,2.17,2.473,4.65.4,2.23-1.867,4.383,2,6.663,3.121,1.328,0.654,2.3,1.86,1.256,4.024-0.7,1.458,1.3,3.948-2.15,4.6-0.716.135,0.545,2.089,1.64,2.185,3.549,0.308,2.632,4.921,5.676,5.6-4.1,3.873,1.168,5.013,2.445,6.846,1.149,1.65-3.151,6.124,2.588,5.08-2.685,2.2.9,3.367,0.8,4.772-0.234,3.137,2.588,1.809,3.634,2.591,4.213,3.147,4.357,8.684,8.082,12.07,1.108,1.007.082,3.956-1.166,5.975-0.914,1.477-2.913,3.078-1.842,5.115,0.976,1.856,2.563,3,4.634.838,0.344-.358,1.454,2.007.686,2.444-4.829,2.75-.349,4.929.611,6.78,2.952,5.693,6.575,12.331,5.932,17.7-0.58,4.842,2.992,6.1,3.251,9.342,0.142,1.778.57,3.149-.335,5.327-2.02,4.864-2.775,10.381-3.245,15.7a20.9,20.9,0,0,0,1.721,9.663c0.571,1.338.134,1.657-.361,2.107-3.782,3.438-4.227,4.062-2.728,8.212,1.569,4.346-1.128,8.45-.37,12.879,0.213,1.248-4.605,3.153-8.019,2.308-3.608-.892-7.2-2.766-11.091-1.175-1.415.578-2.909,1.046-1.035,2.94,3.32,3.355,1.772,7.5,1.66,11.411-0.1,3.353-.481,6.838,2.644,9.3Zm-7.465-4.959c0.433-2.021,3.137-1.749,2.522-4-3.939,1.076-2.861-2.2-3.36-3.966a1.465,1.465,0,0,0-1.611-1.322,2.5,2.5,0,0,0-1.971,1.2c2.684,2.09-1.293,4.14-.043,6.356C673.157,346.326,675.585,343.358,675.921,348.589ZM499.249,142.705c-0.193-1.225-3.96,2.828-1.949-1.182,1.215-2.423-.033-2.851-1.55-2.6-2.468.409-3.123-.244-3.769-2.668-0.427-1.6-1.057-4.41-4.436-4.064-0.827.084-2.78-2.675-2.792-4.139-0.058-6.826-4.927-.8-6.7-2.683,0.516,1.183-2.3,2.236.178,3.7,4.826,2.858,4.539,5.576-.637,8.289-2.484,1.3-2.86,2.332-.106,3.87a22.007,22.007,0,0,1,10.92,14.147c1.236,4.78,2.987-.733,4.367.409,1.181,3.847,9.931,7.35,14.412,5.635,4.859-1.859,9.5-4.21,14.454-5.9,3.9-1.333,7.933-.4,11.923-1.419-3.377,2.637-8.275,4.624-9.758,8.069-2.032,4.717-6.428,5.625-9.377,8.36,8.73,0.818,15.469-3.842,22.559-7.637,1.909-1.022,3.705-2.687,6.134-2.345,0.937,0.826.278,1.357-.057,2.094-0.724,1.6-2.594,3.816-1.113,4.89,1.532,1.11,2.358-2.042,4.5-2.766,0.619,0.861.043,2.829,1.709,3.193,1.732-2.241,3.337-4.623,5.255-6.722,2.482-2.715,7.953-1.5,9.544,1.959a9.958,9.958,0,0,0,.815,1.75c3.981,5.464,2.582,8.837-3.85,9.969-3.044.536-7.3-.85-8.288,4.042-3.771-.981-5.886,4.29-9.82,2.592-1.106-.477-2.089.184-2.925,0.193-4.894.053-5.289,6.059-9.86,6.789-2.366.378-3.993,4.354-7.318,1.787-3.389,3.511-8.253.44-11.781,2.533-2.269,1.346-2.938-.493-3.138-1.336-0.258-1.088.948-1.991,2.267-1.229a0.991,0.991,0,0,0,1.558-.4c0.54-.989-0.429-1.292-0.982-1.817-1.7-1.617-4.988-2.247-3.725-5.766-0.964-.137-0.963-3.125-2.966-0.688-1.294,1.575-4.388-.884-6.219,1.92,5.125-.451,1.352,5.961,5.819,6.457-2.437.893-4.823,0.385-6.808,1.773-1.868,1.306-2.513-1.433-4.125-1.494-4.635-.177-9.4.373-13.784-1.554-1.036-.456.033-2.783-2.67-2.949-3.019-.185-4.663-0.18-4.458,3.308,0.037,0.624.323,1.58-1.22,1.171-3.892-1.031-8.088-3.154-9.436-6.086-1.408-3.062-5.242-8,.641-11.783-2.583,3.028-8.7,2.577-7.411,8.409,0.373,1.689-.955,1.479-1.488,1.8-1.558.946-3.594-.208-4.409-0.8-1.324-.969,1.113-0.235,1.205-1.019,0.219-1.851-1.506-2.362-2.529-2.763-3.451-1.355-5.775-5.618-10.353-4.087-0.717-.568-0.364-1.162.033-1.672,0.755-.971,2.2-1.691.682-3.208-2.152-2.156-1.772.895-2.447,1.332-4.551,2.947-5.695,2.732-6.231-2.677-0.178-1.806-1.133-1.479-1.481-1.208-4.461,3.466-5.707-1.932-7.1-3.4-2.07-2.186,1.827-.955,2.748-2.334-1.316-1-5.874-.556-2.6-4.191l1.131-1.142c2.01-.386,4.217-0.531,5.629.952,1.019,1.071-2.138.8-1.3,2.835,1.493-2.3,2.847.682,5.015-.182,1.593-.635,1.779-1.46,1.249-1.925-5.331-4.686-5.407-11.28-6.805-17.446-0.674-2.972-.553-5.564,1.825-7.588,1.767-1.5-.082-1.576-0.666-2.185,0.366-1.772,1.765-2.54,3.514-1.552a28.459,28.459,0,0,0,16.151,3.632c1.765-.109,2.592.866,3.2,2.411,0.594,1.509,2.028,2.849,2.15,4.34a1.578,1.578,0,0,0,1.79,1.53c1.4-.073.429-0.958,0.314-1.569-0.22-1.177.777-.685,1.247-0.83,3.629-1.112,3.458-4.51,4.37-7.23,0.136-.407,1-1.393-0.057-1.452-7.665-.427-4.97-7.252-4.308-9.7,1.815-6.695,7.749-10.925,13.1-15.215,1.106-.887,1.254.583,1.885,0.555,2.478-.113,4.818-0.15,6.294-2.937a65.893,65.893,0,0,1,6.025-9.037c1.36-1.78,1.853-4.364,5.549-4,2.3,0.229,2.979-4.027,5.973-5.139,1.44-.535,2.526-1.206,3.441-0.189,1.524,1.694,7.1-.679,4.81,5.009-1.075,2.67,5,1.075,3.791,4.712,3.627-1.8,3.559,5.375,7.794,2.864-4.322,1.372-4.758,5.862-8.471,8.072,3.5-.147,7.173-2.216,7.413,3.193,0.065,1.475.929,0.615,1.911,0.122,2.534-1.271,5.252-1.875,7.163-4.44,1.616-2.17,3.273,1.547,5.73.627,2.543-.951,2.818-0.222,2.479-3.451,2,1.712,1.525,4.471,3.762,5.862,1.165-2.266,3.013-3.933.052-6.759-2.511-2.4-1.924-6.338.192-9.1a3.361,3.361,0,0,0,.242-0.926c0.491-1.462-1.84-4.95.033-4.018,2.7,1.345,7.6-1.777,8.629,4.121,0.472,2.7,1.924,4.558-.628,6.937-0.417.388,0.64,3.627,2.916,3.992a44.52,44.52,0,0,0,5,.266c0.07,1.924-2.535-.306-2.676,2.182-0.111,1.956-1.431,4.532-4.868,2.754-2.069-1.07-3.945,1.155-4.994,2.3-2.4,2.627-4.7,5.351-7.268,7.833-0.635.613-1.048,1.251-.079,1.918,0.743,0.511,1.152-.108,1.6-0.523,0.112-.1.138-0.306,0.254-0.4,1.987-1.63,5.084-4.769,6.268-3.64,2.006,1.913-2.09,3.228-2.841,5.312-2.282,6.337-7.1,10.625-12.523,14.259-1.068.716-2.878,1.333-3.915,0.92-3.856-1.534-7.288-.33-10.563,1.279-1.546.759-.964-0.616-1.414-0.869-1.426-.8-1.383-0.875-4.429-0.276,0.774,2.311,2.283,3.249,4.751,3.29,1.659,0.027,3.6-.953,5.016.807-2.794,2.131-6.061,1.838-8.848.694-2.648-1.086-3.018-.574-2.812,1.865A12.522,12.522,0,0,1,499.249,142.705Zm-21.838,10.634c-2.639.48-4.04-.022-5.533-1.754-1.383-1.605-3.413-2.9-5.134-4.367-0.839-.717-3.038-0.268-2.605.2,1.681,1.81,2.1,3.162.252,4.928,2.88,0.072,3.768,2.789,5.523,4.29,2.258,1.931,3.741,1.387,4.649-.955C475.046,154.431,476.185,154.84,477.411,153.339Zm-5.057,6.451c5.514,4.992,5.511,4.972,7.783,4.615,1.057-.166,3.061,1.49,2.926-0.714-0.093-1.53-.265-3.934-2.957-4.443C477.5,158.755,475.257,159.934,472.354,159.79ZM421.379,211.7c-3.888-1.119-4.688-3.742-2.9-8.1,0.441-1.076,2.347-2.3.506-3.889a2.433,2.433,0,0,1-.319-3.169c1.439-1.749,1.453.738,2.224,0.977,1.91,0.592,1.5-2.052,2.963-2.364,0.278-.06-1.512-1.8.571-1.6,0.694,0.067,2.185.36,1.072,1.812,3.509,1.064,4,5.8,7.934,6.4,2.766,0.421,5.633,4.7,5.075,7.362a6.665,6.665,0,0,0,3.279-3.236c1.3,1.277,2.069,3.438,4.533,2.789,0.033,1.3,3.816-.079,1.966,3.068-0.608,1.035,2.865-.013,3.959,1.438,0.567,0.752,3.027-1.4,2.315,2.061-0.558,2.713,7.847,7.257,10.743,5.933,1.743-.8,2.308,2.753,3.791.507,2.15,3.407,3.9,1.149,5.873-.3,3.038-2.225,6.769-2.619,9.742-.788,2.37,1.459,7.01-1.752,7.3,3.532,3.525-2.966,6.455,2.009,9.416.882a15.483,15.483,0,0,0,7.872-6.207c1.993-3.149,6.248-4.323,9.447-5a127.913,127.913,0,0,0,17.792-5.294c2.518-.929,2.4-4.613,5.671-4.257,0.511,0.056-.377-0.932-0.684-1.327-0.93-1.2-1.974-1.624-3.2-.238-2.747,3.106-6.343,2.062-9.781,1.985a2.081,2.081,0,0,1-2.021-2.252,1.963,1.963,0,0,1,2.53-2.019c2.274,0.805,3.748-.507,5.273-1.609a8.975,8.975,0,0,1,8.923-1.372c1.471,0.528,3.124-.4,4.367-1.32,4.258-3.147,8.14-6.993,14.04-6.733,1.361,0.06.648-1.053,0.889-1.624,1.018-2.408,3.07-3.294,5.433-3.958,2.347-.66,2.645.258,1.988,2.121-0.414,1.174-1,2.29-1.557,3.558a9.606,9.606,0,0,0,6.456-.129c1.44,2.61.234,6.38,3.616,8.318,0.472,0.271.322,2.718,0.212,2.737-4.1.71-4.288,3.843-4.762,7a2.743,2.743,0,0,1-2.129,2.285c-3.77,1.018-6.605,3.095-5.3,7.823-2.907-1.059,1.927-5.859-3.544-5.685a19.562,19.562,0,0,0-6.195,1.379c-2.743.949-6.331,0.537-8.533,2.393-5.46,4.6-10.805,3.386-16.323.691a0.877,0.877,0,0,0-1.092-.061c-4.339,5.766-13.044,2.031-17.409,7.938a2.893,2.893,0,0,1-3.925.367c-2.548-1.556-3.761,2.612-6.316,1.987,2.29,0.414,1.068,3.545,3.474,4.159-1.861,1.272-4.78-.668-5.806,2.163-0.09.249-.663,0.1-1.015-0.376-2.141-2.9-3.442-2.842-4.857.513-1.443,3.418-2.329,7.146-7.065,7.372a1.605,1.605,0,0,0-.74.609c-0.765.8-5.3,2.718-6.171,2.587-4.656-.7-5.12-0.432-6.017,3.968-0.1.478,0.648,1.2-.423,1.305a10.442,10.442,0,0,0-8.312,4.851c-2.491-3.09-3.41,1.113-5.316,1.168-2.929.082-2.923,0.284-3.346,3.78-3.661-1.139-6.984-2.069-9.791-5.223-1.659-1.864-6.918-3.523-7.4-3.121-3.71,3.071-5.345-2.215-8.2-1.537-0.764.182,0.118-3.185-2.04-1.171-1.541,1.438-3.406,3.163-2.623,5.182,0.588,1.516.732,1.548-.775,2.095-2.5.907-5.379,1.659-5.529,5.181a1.087,1.087,0,0,1-.725.493c-1.352.339-1-2.827-2.895-1.421-1.84,1.363.84,2.4,0.408,3.054-0.724,1.093-2.426-1.239-4.061,1.18-1.014,1.5-3.035,3.117-4.077,5.175-3.646-3.229-8.289-1.915-12.02,1.375-2.466,2.175-6.435,3.152-10.177,3.041-6.245-.185-12.161.584-16.6,5.642-0.269.306,0.306,1.438-.9,0.827-0.772-.391-4.264.231-4.909,0.872-2.6,2.577-6.286,3.075-9.354,4.793-3.538,1.981-6.305,3.8-5.719,8.581-1.044-6.007-6.02,2.981-6.951-2.751,0.012,2.274,1.149,4.645-2.342,4.206-0.148,1.834-1.318,2.124-2.877,1.973-0.949-.091-1.8.453-1.414,1.4,0.879,2.143.991-.99,1.751-0.337a5.658,5.658,0,0,1,.94.767,9.867,9.867,0,0,1-1.243,1.991c-0.537.657-1.353,1.184-1.884,0.146-0.7-1.361-1.446-1.511-2.925-1.169-1.5.348-.972-0.514-1.042-1.79-0.256-4.667,5.087-5.077,5.96-8.757,0.331-1.4.812-1.283,4.924-.577-0.451-1.619-1.989-1.414-3.417-1.865,1.35-1.557,2.423-3.271,3.935-4.407,1.639-1.232,2.034-3.663.339-4.879-1.732-1.243-1.6-1.085-.019-2.4,0.775-.645,3.378-0.49,2.023-2.44-1.536-2.211-2.187-3.675-.95-6.7,1.716-4.193-1.832-8.737-1.366-13.138,0.387-3.654-.453-7.613,1.476-10.951,0.877-1.519,1.663-2.721.92-4.426-2.634,1.46-2.45-5.934-6.191-1.989-0.28.3-3.111-.4-4.858,0.507,0.8-2.046,4.417-1.905,3.239-4.966a2.038,2.038,0,0,1,1.1-.724c5.07,2.884,11.964-1.2,16.43,4.407,1.211,1.522,3.305-.284,5-0.436,3.392-.3,6.763,2.127,10.186-0.06,0.7-.446,1.395-0.212,1.615,1.307,0.448,3.09,2.289,2.536,4.94,1.7a61.8,61.8,0,0,1,12.95-2.5c4.806-.438,9.595,2.064,14.693-0.869,1.874-1.078.248-2.166,1.642-2.95,4.483-2.52,7.876-6.9,13.622-7.3,0.932-.065,5.838.163,1.322-3.22-0.787-.588.464-3.872,0.774-5.911,4.454,1.522,7.919-2.069,12.033-2.306-4.028-2.059,1.894-4.34-.227-6.488-1.893.306-.412,3.028-2.5,3.432C428.282,209.842,424.844,210.836,421.379,211.7ZM416.856,237c-1.562-2.119-.722-3.463,1.327-3.662,2.625-.254,5.809-0.762,7.856.4,3.3,1.875,2.746-2.928,4.934-2.067,0.048-.635.39-1.517,0.095-1.862-1.379-1.617-3.194-.81-4.866-0.559a2.558,2.558,0,0,0-1.664.662c-1.36,2.352-3.851,1.619-5.182,1.028-2.591-1.151-5.016-.642-5.965,1.2C412.22,234.4,414.628,235.878,416.856,237Zm3.576-81.589-1.131,1.142c-3.877,1.009-7.054-2.19-10.983-1.707-2.083.256,0.683-2.984-1.73-3.739-2.1-.654-1.066,3.1-3.283,1.831-0.979-.561-2.268-0.584-3.773-0.934,5.634,6.6,10.719,13.053,17.025,18.384,2.482,2.1,2.164,2.039,1.375,5.941-0.659,3.254,3.407,3.845,4.61,3.858,3.721,0.041,1.748,2.331,1.686,3.4-0.115,1.95-1.052,2.416-3.339,1.785-2.861-.789-4.7-2.831-6.913-4.3-5.24-3.475-11.939-4.848-15.639-10.6-0.773-1.2-2.25-1.861-3.332-.675-0.931,1.021.7,2.19,0.814,2.671,1.134,4.983,4.174,8.482,7.424,12.128a4.229,4.229,0,0,0,2.7,1.66c6.445,1.7,8,7.244,6.173,13.839-0.929,3.355-2.083,3.9-4.847,3.7,0.7,1.581,3.4,1.644,3.039,1.732-3.355.819,0.857,4.725-2.611,5.488s-0.376-3.923-3.372-3.043c0.613,2.014.18,3.379-2.509,2.207-0.873-.382-1.078-0.189-1.03.749,0.15,2.98.13,3.052-2.432,3.529-1.509.281-2.259,1.019-4.081-1.3-2.667-3.4,1.089-7.823-3.355-9.884a17.178,17.178,0,0,0-4.6,4.969c-0.785-2.329-2.2-3.167-4.458-2.072-4.307,2.086-8.77.642-12.811-.464-1.7-.466-2.741-3.024-4.932-0.715a0.788,0.788,0,0,1-.738,0c-1.392-.926-4.586-0.712-5.383.461s-0.13,1.766,1.016,1.735c2.1-.056.746,1.56,1.212,2.276-1.63,2.5-3.962,1.243-6.081,1.127-2.219-1.95-6.364-1.538-7.351-2.441-3.173-2.905-7.743-2.957-10.492-6.164-2.257-2.632-2.337-2.565-4.933-.406-1.8-1.06-.164-2.212.265-2.746,1.648-2.05.781-1.723-1.17-2.547-3.444-1.455-7.422-2.519-10.095-4.77a10.073,10.073,0,0,1-2.9-8.61c1.626,1.433,5.8.767,2.582,5.11,4.044-.946,8-2.519,11.268,1.5-0.806-2.364-.964-4.936-4.046-5.27-1.28-.138-1.137-0.922-1.119-1.974s-0.823-2.066-.985-3.144c-0.32-2.119-4.11,1.121-3.366-2.184,0.539-2.389,3.2-1.149,4.45-2.2,2-1.679,1.466-4.338.825-6.175-1.044-2.992-.111-4.772,2.275-6.045,0.747-.4,1.607-2.518,3.158-0.336,0.48,0.675,3.394.673,4.15-.07,2.763-2.717,4.025.678,5.373,0.784,6.255,0.5,5.32,6.645,8.607,9.015,3.455,2.492,5.446,7.57,8.629,8.536,4.253,1.292,4.856,2.846,5.186,6.477,0.091,1,3.313-.109,5.112-0.029,1.626,0.073,3.26.219,1.545-2.476-3.1-4.876-2.886-5.013-6.808-5.084-0.47-1.876,2.044-.612,2.1-2.206-2.6.676-3.792-.553-4.5-2.965-1-3.4-5.727-4.53-5.594-8.727,0.036-1.134-.242-3.117.168-3.271,4.5-1.686,1.712-3.324.2-5.126a2.093,2.093,0,0,1,.73-1.681c1.107-.746,1,0.753,1.507,1.124,3.3,2.4,6.737,3.438,10.914,2.275-1.324-2.742-3.207-1.248-5.589-1.382,2.2-1.649,3.882-2.471,6.018-2.487,1.113-.008,1.21-0.143,1.009-1.623-0.321-2.371-1.933-5.43-.984-6.954,3.3-5.3,4.148-12,8.91-16.335,3.349-3.053,7.594-.46,10.637.5,2.926,0.922,2.85-.107,3.566-2.172-0.219,5.255,2.043,7.766,6.71,8.8,1.359,0.3,3.191.438,4.311,1.945,2.474,3.332,4.866,1.85,7.157-.337-0.121,2.541-.178,4.354,3,5.993C418.288,146.643,419.666,151.167,420.432,155.409ZM555.689,368.485c-7.184.4-13.384,0.639-19.573-.638a5.073,5.073,0,0,1-3.337-1.7c-4.531-5.915-11.4-6.135-17.865-7.153-3.128-.492-6.75-1.341-9.416-0.253-2.46,1-.935,5.328-3.04,7.853-1.526,1.831-1.922,4.756-2.36,7.273-0.351,2.018,1.269,5.428-3.181,2.949a1.34,1.34,0,0,0-1.9,1.009c-0.29,1.167.839,0.719,1.241,0.719,3.5,0,1.83,2.313,1,3.034-2.117,1.853-2.532,4.008-2.714,6.609-0.081,1.149-3.7,1.732-.966,3.641,0.779,0.543,1.508,4.846,3.542.708,0.234-.474,1.486-0.2,2.238.317,1.8,1.236.2,2.85,0.48,4.262,0.095,0.478-.757,1.143-1.176,1.722-1.707-2.583-3.8.17-5.9-.383-3.645-.961-7.577-0.67-9.944-4.45-1.581-2.524-4.994-1.514-7.085-3.532-1.939-1.873-4.593-3-6.891-4.524a1.611,1.611,0,0,1-.52-1.173c-0.077-4.8-1.315-5.88-5.719-5.854-0.98,0-2-1.387-3.515-1.422s-2.476-.9-0.757-2.309a3.036,3.036,0,0,0-1.121-.511c-5.313.087-4.685-4.788-4.739-7.25-0.051-2.357-.444-4-1.9-5.392-3.143-3.02-4.351-7.668-8.467-10.015-0.262-.149-0.618-3.793-1.943-5.5,2.464-1.029,2.5-2.646,1.393-4.792-0.222-.428.544-1.322,1.634-0.879,1.627,0.661,3.192.852,3.388-1.605,0.1-1.3,1.222-1.094,1.785-.891,5.03,1.82,9.6-1.321,14.512-1.223-0.508-1.695-2.465,0-3.214-1.609,3.064,0.131,5.252-1.365,7.756-2.847a72.486,72.486,0,0,1,23.84-8.493c6.839-1.3,13.41,1.837,19.961-.514,0.712-.256,2.114,0,1.792.956-1.795,5.352,2.244,3.443,4.575,3.936,1.231,0.26,3.358-.051,2.695,2.67-0.42,1.724,1.385.549,2.051,0.792,3.1,1.131,6.982-.281,9.509,2.884,0.047-2.008,4.193,4.367,2.644-1.266-0.066-.239,1.369.275,1.954,0.792,2.588,2.286,4.059,6.872,9.011,4.311a1.166,1.166,0,0,1,.722.552c2.748,5.127,8.7,6.956,11.976,11.589a4.789,4.789,0,0,0,5.715,1.7l-3.362,2.22c0.793,1.755,2.534,1.147,3.711,1.684a3.868,3.868,0,0,0,1.764-.192,2.245,2.245,0,0,1-.123.749c-0.414.742-.441,1.913-1.962,1.087-1.565-.85-2.048.732-2.934,1.635-3.242,3.3-10.531,3.282-14.039-.236a39.7,39.7,0,0,0-17.551-10.6c-6.632-1.856-13.328-.994-19.972.252a1.226,1.226,0,0,0-1.1,1.331c-0.024,1.368.956,1.311,1.944,1.583,5.556,1.533,11,3.615,16.637,4.661,4.1,0.761,7.105,3.36,10.781,4.755,4.584,1.741,8.863,4.239,13.9,4.773C552.734,366.4,553.816,367.449,555.689,368.485Zm127.618-14.854c0.79,0.642.29,2.584,2.076,2.17,1.316-.3,3.873-9.583,3.886-10.8,0.017-1.5-3.75.507-1.659-2.145,1.054-1.338-.557-2.672-0.764-4.711,1.648,0.8,2.506.956,3.636,2.329,1.382,1.68,4.557,1.871,6.576,3.384,3.1,2.325,3.374,5.673,2.652,9.114-0.337,1.6-1.329,2.525.412,4.509,1.976,2.251,3.431.744,4.523,0.306,9.921-3.974,13.015-.9,18.477,7.431,2.412,3.678-.021,8.089.792,12.145,1.886,9.408-2.252,18.3-2.834,27.522-0.076,1.208-1,4.725-3.424,4.88-2.343.15-2.657-2.548-3.065-4.309-1.747-7.546-3.435-15.112-4.868-22.722-0.643-3.411-6.349-9.622-9.691-10.507-1.385-.367-2.265-0.38-2.865.695-0.525.941-.976,2.2,0.742,2.719a3.961,3.961,0,0,1,.94.618,6.422,6.422,0,0,0-4.382,5.96c-2.176-.667-3.6,1.847-5.917,1.25-1.76-.454-1.847-0.12-1.8,2,0.019,0.814-.762,1.326-0.959.867-1.64-3.823-2.247.7-3.41,0.373-0.278,2-2.408,1.286-3.326,2.246-1.56,1.629-3.069-.507-4.565.106,2.489-1.078-1.089-3.667,1.326-4.953s3.478-4.013,5.2-5.809c3.3-3.439,7.774-5.815,11.9-8.408,2.017-1.268.019-2.011-.046-2.992,2.72-.733,4.512-2.752,6.019-4.853,1.02-1.423,2.448-3.95-1.2-3.976-1.549-.011-3.4-3.071-3.647-0.986-0.338,2.8-5.526,4.094-2.255,7.637-5.221-.1-8.72-4.727-8.424-11.165Zm20.911,56.9a19.631,19.631,0,0,1-.666,14.024c-1.83,4.481-4.259,8.89-8.433,11.917-2.586,1.875-4.974.54-7.209-.522-2.211-1.052-1.131-2.9-1.045-4.834,0.138-3.082.3-6.553-3.837-8.5-5.05-2.377-7.531-7.168-7.872-12.634-0.246-3.952-1.415-8.234,1.757-11.736,1.189-1.313-.723-1.173-0.9-1.973-0.562-2.472.062-4.382,2.517-4.77,1.587-.251,4.325-1.7,4.177,2.646-0.112,3.31,3.678,5.426,6.382,6.394,2.746,0.983,5.268,3.155,8.612,2.686C699.159,403.03,704.273,408.971,704.218,410.535ZM374.94,578.938c2.115,0.57,2.666-3.218,5.083-1.809-1.224,1.611-5.434,2.921-.474,5.149,0.92,0.413,1.5,1.223.382,2.193a2.21,2.21,0,0,0-.864,1.134c-0.438,5.433-.421,5.435-6.071,7.364-4.081-2.073-9.068-.754-13.009-3.424a1.622,1.622,0,0,0-1.2.369c-0.613.419-.147,0.94,0.186,1.112,0.918,0.472.731,2.126,3.085,1.268,2.041-.744,5.948-0.49,7.878,2.513,2.846,3.8,2.047,7.906-2.135,10.172a1.044,1.044,0,0,0-.618,1.4c1.454,1.877,2.94,3.746,5.668,3.852,1.3,0.051,2.5-1.017,3.83-.29a25.794,25.794,0,0,0-1.271,3.015c-1.6,3.576,1.956,6.136,2.875,9.305,0.241,0.831,1.413,1.095.88,2.637-0.446,1.29,2.721.87,2.546,2.825,1.017,0.016,1.123-2.5,1.973-1.3,1.227,1.74.737,4.658,3.736,5.213-0.447,1-1.4,1.9-2.28,1.356-6.42-3.973-14.938-4.476-19.46-11.59-0.172-.271-0.5-0.448-0.661-0.723-1.408-2.385,1.014-2.184,2.008-2.69,1.82-.927,1.289-1.276,0-2.309-1.72-1.378-.843-2.185.973-2.852,1.03-.379,2.876-1.216.33-2.77-2.308-1.409-3.533-4.393-6.172-5.383-2.94-1.1-1.861-2.263-.3-3.455-1.1-1.262-1.728.337-2.805,0.041-0.979-.269-1.85,2.528-3.384.958-1.167-1.194.023-2.3,0.781-3.386s0.065-1.968-.984-1.312c-0.764.477-.978,1.711-2.075,0.5,1.235-1.075-3.178-2.019.084-3.677,1.289-.656-0.878-2.385-2.827-3.056l3.976-.947c-4.146-1.69-1.883-8.366-8.258-7.273,1.464-1.873,5.869.141,3.807-4.216-0.245-.518,2.084-2.244,3.68-3.882,0.5,5.6,5.2,6.123,8.407,6.639,2.992,0.481,3.5,2.065,4.684,3.8,0.417,0.616-.629,2.238,1.183,1.857,1.192-.251,1.655-0.9.608-1.938C372.405,584.746,371.4,579.657,374.94,578.938Zm-6.973,21.9c-3.68-4.891-4.449-5.29-8.342-3.711C363.731,596.619,363.62,602.37,367.967,600.842ZM720.1,446.711c-2.014,7.334-3.914,14.6-9.678,20.459-6.269,6.371-14.807,8.229-22.165,12.384-4.731,2.671-8.5,6.492-12.939,9.483-2.622,1.765-4.8,4.159-7.841.491-1.082-1.3-4.53,1.062-5.287,3.113-1.437,3.893-4.962,6.488-6.723,10.353-0.577,1.267-5.34,1.826-6.868-.283-1.73-2.388-.569-5.745.664-8.371,1.685-3.592,4.834-6.538,4.429-11.007a1.581,1.581,0,0,1,1.669-1.458c5.686,0.09,11.309-.109,16.813-1.889,1.132-.366,2.641,2.1,3.771,1.148,6.944-5.854,17.221-5.241,23.543-12.379,3.622-4.09,8.914-6.231,12.806-10.271C715.728,454.925,716.123,449.883,720.1,446.711ZM326.877,507.736c2.824,3.16,5.847,6.886,7.191,10.239,1.633,4.076,5.137,7.557,5.238,12.1,0.055,2.5,2.031,3.371,2.97,5.066,1.363,2.462-.3,3.693-1.568,5.191-0.681-2.371-4.374,2.735-4.828-2.27-0.292-3.22-4.973-5.292-5.553-9.235-0.827-5.613-4.834-10.328-4.67-16.2C325.7,510.945,324.878,508.966,326.877,507.736Zm236.157,253.95c-2.257.94-3.591,2.853-5.809,2.913-0.3-1.875,5.149-12.84,6.1-12.348,2.536,1.312,6.2-1.712,8.085,2.424-4.313-2.667-5.909,2.893-9.363,2.6a2.429,2.429,0,0,0-.414,1.265c-0.023,1.078.749,1.348,1.641,1.284a5.9,5.9,0,0,1,4.634,1.414c0.339,2.477-4.007.242-3.036,3.322a3.093,3.093,0,0,0,3.655,2.308c-0.367,3.818-5.007,2.865-5.783,5.834-0.205.78,0.864,1.891,1.442,3.038,1.95-1.265,2.305-3.805,4.747-4.157,1.578-.227,3.236-0.809,4.191.731a2.846,2.846,0,0,1-.571,3.588c-1.192,1.157-2.171,2.611-3.573.061-0.44-.8-1.819-0.5-2.617.255-1.877,1.78-4.27,1.9-6.626,2.515-2.808.733-5.375,1.432-6.636-1.591-0.938-2.248,3.768-6.745,6.778-6.73,1,0,1.712-.03,1.594-1.054C561.172,766.762,562.838,764.533,563.034,761.686ZM327.39,227.125c-6.321,2.359-12.423,5.176-20.708,6.046l5.159-4.393c-2.345-.819-3.657-3.036-6.167-0.239-1.7,1.9-3.236.389-4.518-1.438-1.55-2.211-.393-3.008,1.395-3.787a20.493,20.493,0,0,0,5.9-4.1c1.862-1.767,3.942-2.131,6.2-.472C318.653,221.688,322.493,224.905,327.39,227.125ZM439.448,772.456a21.054,21.054,0,0,0,4.876,7.694c2.583,2.956,2.954,6.263.782,9.54-1.481,2.234-1.308,2.915,1.533,2.982,1.643,0.039,3.557,2.261,2.921,3.094-3.313,4.341.252,6.673,3.493,10.02-5.79.521-9.542-5.457-14.529-.514,0.271-2.982,1.483-2.885,2.552-3.261,2.241-.789,3.658-2.53,2.848-4.9-0.585-1.71.448-4.311-3.6-4.446-5.213-.174-5.714-2.706-2.835-7.2C439.712,781.994,439.3,777.826,439.448,772.456Zm132.39-33.3c-0.661-3.619,2.6-7.571-2.843-8.173-0.971-.108-0.283-1.479.329-1.895,2.453-1.668,4.918-4.273,7.981-1.144a4.1,4.1,0,0,0,4.79,1.081,6.6,6.6,0,0,0-.065-1.106c-0.483-1.9-4.5-1.376-3.313-4,1.088-2.4,4.117-2.125,6.4-2.818a1.29,1.29,0,0,1,1.572.487c0.841,0.895.873,12.045-.1,12.715-1.342.921-2.414,2.07-4.681,1.364C578.517,734.619,574.854,734.661,571.838,739.159ZM554.26,123.868c-1.057,1.412-2.785,1.118-4.892,2.109,1.338-2.814,2.391-4.909,3.332-7.053,0.6-1.371,2.252-2.417,2.987-2.116,4.9,2.008,8.165-2.318,12.363-2.84,3.1-.384,3.288-4.275,6.837-5.574-2.534,4.485-1.816,9.879-7.223,12.065-3.506,1.417-5.291,5.607-9.707,5.849-1.068.058-2.081,2.414-3.677,1.438C552.547,126.686,555.722,125.256,554.26,123.868Zm62.314,592.214-3.9,2.635c-2.453-4.207-.2-9.344-3.546-13.28-1.374-1.617,2.378-7.169,4.478-7.477,4.342-.637,9.019,2.49,9.147,6.118a4.359,4.359,0,0,1-.006.976c-0.41,2.126,1.142,5.748-.855,6.131-3.066.588-1.508-3.079-2.3-4.761-0.614-1.3-1.412-1.986-3.032-.876C613.036,707.955,612.9,711.857,616.574,716.082Zm-18.426-23.073a2.516,2.516,0,0,1-.935-0.8,2.207,2.207,0,0,1,.893-2.594c5.453-3.793,8.092-10.561,14.415-13.458,1.343-.615,1.426-2.122,1.546-3.408,0.194-2.075.68-3.344,3.334-3.42,3.331-.1,2.557-5.468,6.5-5.623,1.018-.041,2.026-1.735,3.206-0.161,1.555,2.073-.994,1.763-1.584,2.592-3.441,4.834-8.8,7.831-11.863,13.2-3.3,5.771-8.957,9.525-14.51,13.131C598.88,692.644,598.581,692.778,598.148,693.009ZM331.064,414.146c5.758-.153,5.484,4,6.877,6.4,0.364,0.626-.048,3.986-3.957,3.764-2.267-.129-5.688,2.35-8.289,4.217-0.121.087-1.324,3.52-2.245,0.371-0.195-.668-4.368-0.914-0.444-2.494,0.846-.341-1.065-1.282-1.073-2.15C321.91,421.824,329.839,414.217,331.064,414.146Zm83.454,300.811c0.326,5.672,3.462,10.141,4.793,15.191,0.2,0.77,1.4,1.569.187,2.542a2.167,2.167,0,0,1-3.07.059c-2.007-1.79-3.532-2.467-4.226,1.074a1.609,1.609,0,0,1-2.267,1.2,2.323,2.323,0,0,1-1.339-2.866c1.565-4.294.286-8.4-.475-12.578-0.13-.714-0.39-2.781,1.368-1.854C412.753,719.447,413.281,717.237,414.518,714.957Zm214.54-56c-1.368-1.213-.567-2.3-0.338-2.5,4.714-4.09,6.268-10.323,10.339-14.883,2.493-2.794,4.339-1.845,5.765.379a38.79,38.79,0,0,0,9.282,9.724c0.694,0.535,1.625.918,0.777,1.63-0.458.383-1.475,1.915-2.558,0.242-1.735-2.679-5.708-2.791-7-6.206-0.765-2.017-2.64-.924-3.5,0C637.851,651.617,632.266,653.95,629.058,658.958ZM595.527,777.3l5.5,0.569c-3.307,5.3-10.815,6.255-14.678,2.276-2.122-2.185-.787-3.976.668-5.387a9.218,9.218,0,0,1,4.305-2.015c1.633-.363,3.846-0.846,5-0.076C598.67,774.243,594.407,775.27,595.527,777.3ZM423.308,129.865c-0.626.5-1.222,1.372-1.883,1.424-4.136.329-2.525,1.963-.927,3.644,1.275,1.341,1.695,3.272-.2,3.684-2.838.616-5.9,0.221-8.862,0.257-3.348-2.358,2.136-3.631.713-5.753,2.368-.284,1.645-0.943.251-1.793-0.711-.433-2.51-0.642-1.534-1.714,0.651-.715,1.37-2.178,3.307-1.8C417.24,128.417,420.383,128.621,423.308,129.865ZM564.135,99.834c0.976-5.325,5.229-8.071,6.552-12.538a3.477,3.477,0,0,1,2.815-2.41c-0.677,3.171,3.636,2.01,3.984,4.631,0.21,1.579-.931,1.713-1.219,2.335C573.825,97.117,569.029,98.129,564.135,99.834Zm64.986,634.619-2.334,2.2a1.424,1.424,0,0,1-2.133.016,1.522,1.522,0,0,1,.167-2.463c2.471-1.7-.219-5.871,2.86-6.567,1.754-.4,4.807-0.057,5.756,2.076,1.007,2.265,2.29,4.647,2.117,7.3-0.068,1.033.618,2.425-.782,3.011-1.5.628-2.512-.456-3.277-1.5A45.533,45.533,0,0,1,629.121,734.453ZM588.214,805.6a2.128,2.128,0,0,0-.47,0c-1.311.344-2.755-1.385-2.551-2.937a17.3,17.3,0,0,0,.051-2.934,2.362,2.362,0,0,1,1.1-2.039c2.266,3.145,6.592.337,9.079,3.165,1.17,1.329,2.3,2.714,1.47,4.278a4.122,4.122,0,0,1-4.638,1.8A32.386,32.386,0,0,1,588.214,805.6Zm-55.48-17.609a8.939,8.939,0,0,0-1.612.4c-4.853,2.33-9.9-.477-9.827-5.77,0.023-1.742.933-3.909,3.284-4.231,1.991-.274,4.077-0.37,5.756,1.091,1.044,0.908.45,1.782-.361,2.424-4.533,3.593-1.751,4.4,1.857,4.955A3.667,3.667,0,0,1,532.734,787.99Zm83.446-37.219c4.687-.618,7.6,1.5,9.137,5.25,0.157,0.383-3.882,3.407-5.292,2.571-2.628-1.557-6.787,1.38-7.759-2.468C612.034,755.206,612.891,750.892,616.18,750.771Zm-12.466-11.146c-2.614,4.241-5.084,8.522-8.03,12.448-0.209.278-5.294-.168-6.126-1.182-1.6-1.945.708-3.574,2.795-4.466,3.422-1.463,5.27-4.725,7.982-7,0.72-.606,1.322-1.585,2.455-0.807A5.582,5.582,0,0,1,603.714,739.625Zm-14.543,22.2c0.047,2.569-4.415,6.942-6.981,6.868a3.717,3.717,0,0,1-3.761-3.161c-0.452-2.108,3.848-5.576,6.784-5.672C588.814,759.739,589.136,759.9,589.171,761.822Zm59-84.724c-5.02,2.185-.991,5.963-2.9,9.1-1.734-2.319-2.314-7.031-6.62-3.549-0.085.068-2.689-2.875-1.754-4.844,0.636-1.34.636-4.283,3.842-2.854C642.76,675.849,645.019,676.213,648.172,677.1Zm-59.731-556c3.8-1.8,6.26-3.451,9.53.037,1.841,1.964,5.386,2.29,8.066,3.558,0.937,0.444,3.173.453,2.195,2.307-1.018,1.932-1.968-.408-2.7-0.44C599.649,126.308,594.554,123.831,588.441,121.1Zm63.486,503.936c1.315-1.712,4.238.667,4.31-2.422,0.05-2.147-2.166-.748-3.114-1.926l7.787-1.945c1.091,3.279.5,7.351-1.41,8.956C657.365,629.494,655.153,624.77,651.927,625.038ZM339.379,547.452c2.136,0.615,4.371,1.135,4.287,2.2-0.29,3.689,1.556,7.21.609,10.868a1.185,1.185,0,0,1-1.444.588c0.659-3.089-4.387-3.465-3.26-6.387C340.478,552.371,339.874,550.251,339.379,547.452ZM655.43,707.165c0.053-1.8,2.269-2.66,1.956-4.756-0.174-1.158-.955-3.236,1.428-3.4,1.363-.091,3.645-0.788,3.939.555,0.308,1.409.437,4.418,0.052,4.6C660.452,705.305,659.184,709.447,655.43,707.165Zm-109.616,47.12c0.4-2.2,2.123-2.395,3.338-2.954,1.9-.872,3.379.236,4.486,1.752,0.891,1.221,1.59,2.773.769,4.068-1.166,1.839-2.612.187-3.8-.313A54.2,54.2,0,0,1,545.814,754.285ZM529.456,161.169c4.834-5.456,8.625-7.868,13.512-9.077C539.924,157.783,533.644,157.933,529.456,161.169ZM554.632,800.72c0.073-2.148.532-4.776,2.9-4.626,1.788,0.114,1.431,3.092,1.961,4.777,0.685,2.175-1.419,2.863-2.786,2.968C554.877,803.98,554.592,802.273,554.632,800.72ZM327.454,314.228c-1-1.915-1.044-3,.612-4.938,1.91-2.238,4.4-2.819,6.579-4.192a2.08,2.08,0,0,1,.753.934c0.122,0.589.192,1.582-.583,1.58C330.224,307.6,331,312.91,327.454,314.228ZM354.143,210.59c2.119,0.116,4.451,1.37,6.081-1.127,0.937,0,2.146-1.806,2.723.018,0.461,1.457.781,3.383-.328,4.648-0.606.693-1.233-.052-2.077-1.017-1.945-2.224-3.247.712-4.507,1.991C354.007,214.053,355.39,211.809,354.143,210.59ZM559.8,735.19c-1.145,1.049-.981,3.381-2.486,2.751-1.23-.515-4.436.066-3.425-2.706,0.453-1.242-.3-4.088,2.593-3.792C558.792,731.679,558.371,734.148,559.8,735.19ZM423.483,720.036c3.1-.73,1.15,2.628,2.609,3-0.558,1.558-1.363,3.758-2.869,3.51-1.43-.234-2.84-1.994-2.849-4.107C420.364,719.961,422.255,720.546,423.483,720.036Zm219.022-27.481-8.365-5.319C640.4,685.264,640.54,685.346,642.505,692.555Zm17.13-36.977c-0.943-.512-3.285-0.112-3.22-2.627a2.027,2.027,0,0,1,2.662-2.046c1.571,0.479,3.821.743,3.927,2.893C663.073,655.212,661.657,655.829,659.635,655.578Zm1.573-328.2c-1.135,3.164-2.57,5.434-5.929,1.972a4.468,4.468,0,0,0,1.972-3.886,0.805,0.805,0,0,1,1.024-.9C660.086,324.676,659.83,326.859,661.208,327.374ZM636.733,719.2c1.419,2.065,6.1-.593,5.762,3.869-0.158,2.1-2.151,1.753-2.909,1.684C636.25,724.447,637.911,721.1,636.733,719.2ZM524.576,202.263c-5.774,3.424-5.774,3.424-9.3.909C518.189,201.823,520.947,200.849,524.576,202.263Zm20.2,449.335,0.808-.795A0.608,0.608,0,0,1,544.781,651.6Zm-0.915.23-0.017.017ZM191.26,809.822s0.752-16.657,14.567-32.078,64.691-53.217,87.4-61.239c10.313-2.705,16.821-2.772,24.763-2.916-0.2.565,0,96.466,0,96.466Zm573.8-146.9s103.779,62.107,117.68,147.136H765.06V662.922ZM1074,984.8C695.649,1125.91,341.726,832.541,0,984.8V756.421c341.727-152.255,695.65,141.107,1074,0V984.8Z"/>
  <path id="Pointy_banner_short" data-name="Pointy banner short" class="cls-1" d="M915,835C547.591,978.277,326.182,628.542,0,772H0c309.682-156.958,732.092,134.465,1074,.193Z"/>
</svg>
